<svg xmlns="http://www.w3.org/2000/svg" xmlns:xlink="http://www.w3.org/1999/xlink" version="1.1" viewBox="35.2 11.21 169.59 86"><title>CJD_logo</title><g id="CJD_logo" stroke="none" stroke-width="1" fill="none" fill-rule="evenodd"><g id="CJD" transform="translate(35.203452, 11.206778)" fill="#ffffff"><path d="M53.3455588,83.9598453 C53.6722228,84.4133459 54.1119629,84.748386 54.6647791,84.9661621 C55.2169969,85.1833398 55.8015222,85.2916296 56.4177566,85.2916296 C56.8802315,85.2916296 57.3151853,85.2240233 57.7232163,85.0882124 C58.1312472,84.9518032 58.4842359,84.7573603 58.7833788,84.5036871 C59.08312,84.2500139 59.3200412,83.9365121 59.4971338,83.5649766 C59.6742264,83.1934411 59.7627727,82.7770342 59.7627727,82.3151575 C59.7627727,81.7348202 59.6449104,81.2789264 59.4085875,80.9486726 C59.1728629,80.6178206 58.8808994,80.3551731 58.5320987,80.1601319 C58.1826998,79.9650907 57.80219,79.8131261 57.3899711,79.7042381 C56.9771538,79.5959484 56.5972423,79.4732998 56.2484417,79.3368906 C55.899641,79.201678 55.6070793,79.0245854 55.3713546,78.8068093 C55.13563,78.5896316 55.0177677,78.2767281 55.0177677,77.8692954 C55.0177677,77.723912 55.0470837,77.5653662 55.106314,77.3936582 C55.164946,77.2213518 55.2672529,77.060413 55.4120381,76.9108415 C55.5568232,76.76127 55.7500696,76.6386214 55.9899822,76.543494 C56.2298948,76.4483665 56.5314309,76.4005037 56.8939921,76.4005037 C57.2745019,76.4005037 57.6143283,76.4782808 57.9134712,76.6320403 C58.2132124,76.786398 58.4435524,76.9904135 58.6068845,77.2440867 L59.6676453,76.2784534 C59.305084,75.8345253 58.8832925,75.5401686 58.4034673,75.3953835 C57.9224455,75.25 57.4198854,75.1776074 56.8939921,75.1776074 C56.3136548,75.1776074 55.8176759,75.2661537 55.4054569,75.4420498 C54.9926397,75.6191424 54.6552065,75.8387133 54.392559,76.101959 C54.1293132,76.3646065 53.9372635,76.6547752 53.8146149,76.9718667 C53.6919663,77.2889581 53.6309411,77.5886994 53.6309411,77.8692954 C53.6309411,78.4945041 53.7488034,78.9904831 53.9851263,79.3578306 C54.2202527,79.7251781 54.5128144,80.0171416 54.8616151,80.2343193 C55.2104157,80.4520954 55.5903272,80.6220086 56.0037428,80.7446572 C56.4153634,80.8667075 56.7964715,80.9935441 57.1452722,81.125167 C57.4940728,81.2567898 57.7866346,81.4201219 58.0217609,81.6145648 C58.2580838,81.809606 58.3759461,82.0931935 58.3759461,82.464729 C58.3759461,82.7267782 58.3167158,82.9583148 58.1988535,83.157544 C58.0809912,83.3573714 57.9290266,83.5248915 57.743558,83.6601041 C57.5574911,83.7965132 57.3510825,83.8982218 57.1249304,83.9664264 C56.8981801,84.0340327 56.6768143,84.0687333 56.4590383,84.0687333 C56.0689559,84.0687333 55.6908393,83.9849733 55.3234918,83.816855 C54.9567425,83.6493349 54.6552065,83.3890806 54.4200801,83.0348954 L53.3455588,83.9598453 Z M62.522067,80.9217498 C62.6213825,80.6447434 62.7625779,80.4090188 62.9438585,80.2145759 C63.1245409,80.0195347 63.3465049,79.8657753 63.6097507,79.752101 C63.8729964,79.6384266 64.1667548,79.5821878 64.4934189,79.5821878 C64.8194846,79.5821878 65.1144396,79.6384266 65.3764888,79.752101 C65.6397345,79.8657753 65.8616986,80.0195347 66.0429792,80.2145759 C66.2248581,80.4090188 66.364857,80.6447434 66.4647707,80.9217498 C66.5646844,81.1981578 66.6137439,81.4984973 66.6137439,81.8251614 C66.6137439,82.1512272 66.5646844,82.4527632 66.4647707,82.7291713 C66.364857,83.0055794 66.2248581,83.241304 66.0429792,83.4363452 C65.8616986,83.6313864 65.6397345,83.7851458 65.3764888,83.8982218 C65.1144396,84.0118961 64.8194846,84.0687333 64.4934189,84.0687333 C64.1667548,84.0687333 63.8729964,84.0118961 63.6097507,83.8982218 C63.3465049,83.7851458 63.1245409,83.6313864 62.9438585,83.4363452 C62.7625779,83.241304 62.6213825,83.0055794 62.522067,82.7291713 C62.4227516,82.4527632 62.3724955,82.1512272 62.3724955,81.8251614 C62.3724955,81.4984973 62.4227516,81.1981578 62.522067,80.9217498 L62.522067,80.9217498 Z M61.3320765,83.1509628 C61.5091691,83.5631818 61.7514748,83.921555 62.0601903,84.2248859 C62.3683075,84.5288151 62.7308688,84.7681295 63.1472757,84.9452221 C63.5648792,85.1223147 64.0129953,85.2102627 64.4934189,85.2102627 C64.9732441,85.2102627 65.4225568,85.1223147 65.8389637,84.9452221 C66.2559689,84.7681295 66.6185302,84.5288151 66.9272457,84.2248859 C67.2347646,83.921555 67.4770703,83.5631818 67.654163,83.1509628 C67.8312556,82.7387439 67.9192036,82.2966106 67.9192036,81.8251614 C67.9192036,81.3543104 67.8312556,80.9139721 67.654163,80.5065394 C67.4770703,80.0985085 67.2347646,79.7413318 66.9272457,79.432018 C66.6185302,79.1250974 66.2559689,78.8821933 65.8389637,78.7051007 C65.4225568,78.5286064 64.9732441,78.4400601 64.4934189,78.4400601 C64.0129953,78.4400601 63.5648792,78.5286064 63.1472757,78.7051007 C62.7308688,78.8821933 62.3683075,79.1250974 62.0601903,79.432018 C61.7514748,79.7413318 61.5091691,80.0985085 61.3320765,80.5065394 C61.1561804,80.9139721 61.0676341,81.3543104 61.0676341,81.8251614 C61.0676341,82.2966106 61.1561804,82.7387439 61.3320765,83.1509628 L61.3320765,83.1509628 Z M69.0068872,85.0469307 L74.3495798,85.0469307 L74.3495798,83.9867681 L70.4744824,83.9867681 L74.1587266,79.6910758 L74.1587266,78.6033921 L69.1295358,78.6033921 L69.1295358,79.6635547 L72.6636103,79.6635547 L69.0068872,83.9460847 L69.0068872,85.0469307 Z M75.8446961,85.0469307 L77.068789,85.0469307 L77.068789,78.6027939 L75.8446961,78.6027939 L75.8446961,85.0469307 Z M75.8243544,76.9240038 C76.0008487,77.1010964 76.2120436,77.1896427 76.4567425,77.1896427 C76.7014415,77.1896427 76.9114398,77.1010964 77.0885324,76.9240038 C77.265625,76.7481077 77.3541713,76.5369128 77.3541713,76.2922139 C77.3541713,76.047515 77.265625,75.8369184 77.0885324,75.6598258 C76.9114398,75.4833315 76.7014415,75.3953835 76.4567425,75.3953835 C76.2120436,75.3953835 76.0008487,75.4833315 75.8243544,75.6598258 C75.6478601,75.8369184 75.5593138,76.047515 75.5593138,76.2922139 C75.5593138,76.5369128 75.6478601,76.7481077 75.8243544,76.9240038 L75.8243544,76.9240038 Z M79.7736392,80.1535508 C79.881929,80.0715856 79.9956033,79.9854324 80.1134656,79.894493 C80.2313279,79.8047501 80.3623525,79.7251781 80.507736,79.6569735 C80.6525211,79.5893672 80.8140583,79.5325301 80.9899544,79.4870603 C81.167047,79.4415906 81.3728573,79.4188557 81.6085819,79.4188557 C81.8718277,79.4188557 82.0979797,79.457146 82.2882346,79.5349232 C82.4784895,79.6115038 82.6370353,79.7162038 82.7644702,79.8472284 C82.8913068,79.978253 82.9864342,80.1260296 83.0498525,80.2887634 C83.1132708,80.4520954 83.14498,80.6154274 83.14498,80.7781612 L83.14498,81.0503812 L82.2475512,81.0503812 C81.7581534,81.0503812 81.2980716,81.0886715 80.8679041,81.1664487 C80.4371382,81.2430293 80.0608165,81.3698659 79.739537,81.5463602 C79.4176592,81.7234528 79.163986,81.951998 78.9779191,82.2331923 C78.7924505,82.5137884 78.6991179,82.8631873 78.6991179,83.2801926 C78.6991179,83.5966858 78.7583482,83.875487 78.8762105,84.1159979 C78.9934745,84.3565088 79.1550117,84.5575328 79.3584289,84.7214632 C79.5624443,84.8841969 79.8005621,85.0062472 80.0727822,85.0882124 C80.3444039,85.1695793 80.6303846,85.2102627 80.9289292,85.2102627 C81.418327,85.2102627 81.8490928,85.1235112 82.2206283,84.9518032 C82.5921638,84.7800952 82.9140416,84.4851402 83.1856634,84.0687333 L83.2125863,84.0687333 C83.2125863,84.3947991 83.2269451,84.7214632 83.253868,85.0469307 L84.3415516,85.0469307 C84.3230048,84.8752226 84.3098425,84.693942 84.3002699,84.5036871 C84.2912956,84.3128339 84.2871076,84.1046305 84.2871076,83.8778801 L84.2871076,80.5885046 C84.2871076,80.3073102 84.2344585,80.0374833 84.130955,79.7796221 C84.026255,79.5205643 83.8653161,79.2920191 83.6475401,79.0921917 C83.4303623,78.8935608 83.1515611,78.735015 82.8117348,78.6171527 C82.4719084,78.4986921 82.0662706,78.4400601 81.5954196,78.4400601 C81.141919,78.4400601 80.6884183,78.5196321 80.2361142,78.6781779 C79.7826135,78.8367236 79.3835569,79.0748414 79.0395425,79.3919329 L79.7736392,80.1535508 Z M83.14498,81.94781 L83.14498,82.3552427 C83.14498,82.5730187 83.1132708,82.7925896 83.0498525,83.0145537 C82.9864342,83.237116 82.8817342,83.43814 82.7375473,83.6200189 C82.5921638,83.8012995 82.4019089,83.9484778 82.1661843,84.0615539 C81.9304597,84.1746299 81.6444791,84.2314671 81.3100373,84.2314671 C80.8840578,84.2314671 80.5460263,84.1501002 80.2971394,83.9867681 C80.0476542,83.8240344 79.9232107,83.5566006 79.9232107,83.1850651 C79.9232107,82.9313919 80.0021844,82.7225902 80.1607302,82.5598564 C80.3192759,82.3959261 80.5232914,82.2690895 80.7727766,82.1787483 C81.0216635,82.0884072 81.2980716,82.027382 81.6020008,81.9950746 C81.90593,81.9633654 82.2020815,81.94781 82.4922501,81.94781 L83.14498,81.94781 Z M86.163332,85.0469307 L87.3868266,85.0469307 L87.3868266,74.7689782 L86.163332,74.7689782 L86.163332,85.0469307 Z M95.0400991,78.6033921 L93.8166045,78.6033921 L93.8166045,81.9202888 C93.8166045,82.2918244 93.7705365,82.6137021 93.6807936,82.8853239 C93.5904525,83.157544 93.4636159,83.3819012 93.2996856,83.5583955 C93.1369518,83.7354881 92.9466969,83.8647178 92.7289209,83.9460847 C92.5117431,84.0274516 92.2754202,84.0687333 92.0223453,84.0687333 C91.8320904,84.0687333 91.6484166,84.0394173 91.471324,83.980187 C91.295428,83.921555 91.1380788,83.8264275 91.0022679,83.6942064 C90.8670553,83.5631818 90.757569,83.3914737 90.6756039,83.1778857 C90.5948353,82.9648959 90.5541518,82.7094279 90.5541518,82.4096867 L90.5541518,78.6033921 L89.3306573,78.6033921 L89.3306573,82.7501113 C89.3306573,83.1760908 89.3940756,83.5452332 89.5209122,83.8581367 C89.6471505,84.1704419 89.817662,84.4265082 90.0306517,84.6263357 C90.2430432,84.8249666 90.4901352,84.9727432 90.7719279,85.0678707 C91.0519256,85.1629981 91.3510686,85.2102627 91.6687583,85.2102627 C92.1671305,85.2102627 92.6068705,85.1037678 92.9873803,84.890778 C93.3684884,84.6777883 93.6353239,84.3989871 93.7890834,84.0549727 L93.8166045,84.0549727 L93.8166045,85.0469307 L95.0400991,85.0469307 L95.0400991,78.6033921 Z M96.8894006,85.0469307 L98.1122969,85.0469307 L98.1122969,81.7300339 C98.1122969,81.3584984 98.1583649,81.0366207 98.248706,80.7649989 C98.3390472,80.4933771 98.4664821,80.2690199 98.6292158,80.0919273 C98.7919496,79.915433 98.9822045,79.7862033 99.1999805,79.7042381 C99.4171583,79.6234695 99.6534812,79.5821878 99.9071544,79.5821878 C100.096811,79.5821878 100.280485,79.6115038 100.457577,79.6701358 C100.63467,79.7293661 100.790823,79.8244935 100.926633,79.9555181 C101.063043,80.0877393 101.171332,80.2594474 101.253298,80.4724371 C101.334066,80.6854269 101.375348,80.9414932 101.375348,81.2406361 L101.375348,85.0469307 L102.598244,85.0469307 L102.598244,80.9008098 C102.598244,80.4748303 102.534826,80.1050896 102.408587,79.7927844 C102.281751,79.4798809 102.111239,79.2244128 101.898848,79.0245854 C101.685858,78.8253562 101.436373,78.6781779 101.150392,78.5830504 C100.86501,78.487923 100.56826,78.4400601 100.260741,78.4400601 C99.7617709,78.4400601 99.3220308,78.546555 98.941521,78.760143 C98.5616095,78.9731328 98.2935775,79.2513357 98.139818,79.5959484 L98.1122969,79.5959484 L98.1122969,78.6033921 L96.8894006,78.6033921 L96.8894006,85.0469307 Z M107.900852,78.6033921 L106.146677,78.6033921 L106.146677,76.7953723 L104.923781,76.7953723 L104.923781,78.6033921 L103.510032,78.6033921 L103.510032,79.6635547 L104.923781,79.6635547 L104.923781,83.0217331 C104.923781,83.2843806 104.93455,83.5452332 104.957883,83.8030944 C104.98002,84.0615539 105.053011,84.2948854 105.175061,84.5036871 C105.29771,84.7124889 105.487965,84.8818038 105.745826,85.0134266 C106.004285,85.1444512 106.368641,85.2102627 106.840689,85.2102627 C106.967526,85.2102627 107.145815,85.1947073 107.377351,85.1629981 C107.60829,85.131289 107.796151,85.0744518 107.941535,84.9924866 L107.941535,83.8778801 C107.814698,83.950871 107.673503,83.9999304 107.520342,84.0274516 C107.365386,84.0549727 107.216413,84.0687333 107.071627,84.0687333 C106.835304,84.0687333 106.657015,84.0250584 106.534367,83.9389053 C106.412316,83.8533504 106.321377,83.7396761 106.262745,83.5990789 C106.203515,83.45908 106.170011,83.3005343 106.161036,83.1234417 C106.151464,82.9469474 106.146677,82.7680599 106.146677,82.5867793 L106.146677,79.6635547 L107.900852,79.6635547 L107.900852,78.6033921 Z M115.567885,82.2732775 L115.567885,81.8383237 C115.567885,81.4219167 115.511047,81.0120909 115.397971,80.6088463 C115.284895,80.2056016 115.101222,79.8430404 114.847548,79.5205643 C114.593277,79.1992848 114.269604,78.9390305 113.875334,78.739203 C113.481064,78.5399738 112.998845,78.4400601 112.427482,78.4400601 C111.947657,78.4400601 111.503131,78.5262133 111.0951,78.6985196 C110.687667,78.8702276 110.335875,79.1083454 110.041518,79.4122746 C109.746563,79.7162038 109.516223,80.0733805 109.348703,80.486796 C109.180585,80.8984166 109.097423,81.3447379 109.097423,81.8251614 C109.097423,82.3061832 109.174004,82.7519062 109.327763,83.1641251 C109.482121,83.5769423 109.701692,83.9347173 109.987074,84.2380482 C110.273055,84.5419774 110.621856,84.7800952 111.034074,84.9518032 C111.446293,85.1235112 111.906375,85.2102627 112.41432,85.2102627 C113.637216,85.2102627 114.589089,84.7705226 115.268742,83.8916407 L114.34439,83.1850651 C114.109264,83.4746355 113.850206,83.7079669 113.56961,83.8850596 C113.288416,84.0615539 112.957563,84.1501002 112.577054,84.1501002 C112.296458,84.1501002 112.024238,84.1046305 111.76159,84.0142893 C111.498344,83.9233498 111.268004,83.7965132 111.068177,83.6331812 C110.868948,83.4698492 110.708009,83.2730131 110.585958,83.0420748 C110.46331,82.8111365 110.402285,82.5550701 110.402285,82.2732775 L115.567885,82.2732775 Z M110.402285,81.2950801 C110.402285,81.0779024 110.449549,80.8583315 110.544677,80.6351709 C110.639804,80.4138051 110.77382,80.2121828 110.945528,80.0309022 C111.117834,79.8496215 111.329029,79.7018449 111.577916,79.5893672 C111.827401,79.4756929 112.101416,79.4188557 112.399961,79.4188557 C112.708078,79.4188557 112.977905,79.4667186 113.209442,79.5618461 C113.44038,79.6569735 113.633028,79.7885964 113.786788,79.9555181 C113.941145,80.1236365 114.056615,80.3204725 114.134392,80.5478211 C114.210972,80.7739732 114.253451,81.0234584 114.263023,81.2950801 L110.402285,81.2950801 Z M117.036078,85.0469307 L118.259573,85.0469307 L118.259573,81.8114008 C118.259573,81.1048252 118.418118,80.5837183 118.73521,80.2480799 C119.0529,79.9130398 119.510588,79.7455198 120.108874,79.7455198 C120.20819,79.7455198 120.307505,79.7544941 120.408017,79.7718444 C120.507332,79.7903913 120.607246,79.8131261 120.706562,79.8406473 L120.761006,78.5220253 C120.598272,78.466983 120.416991,78.4400601 120.217164,78.4400601 C120.017935,78.4400601 119.818107,78.4693761 119.619476,78.5286064 C119.420247,78.5872384 119.236573,78.6668104 119.068455,78.7667242 C118.900935,78.8660396 118.74897,78.9862951 118.613758,79.1268923 C118.477349,79.2668911 118.369059,79.423642 118.287094,79.5959484 L118.259573,79.5959484 L118.259573,78.6033921 L117.036078,78.6033921 L117.036078,85.0469307 Z M122.065867,85.0469307 L123.28996,85.0469307 L123.28996,81.7300339 C123.28996,81.3584984 123.334831,81.0366207 123.425771,80.7649989 C123.516112,80.4933771 123.642949,80.2690199 123.805682,80.0919273 C123.969613,79.915433 124.159868,79.7862033 124.377045,79.7042381 C124.594821,79.6234695 124.830546,79.5821878 125.084219,79.5821878 C125.274474,79.5821878 125.458148,79.6115038 125.63524,79.6701358 C125.811136,79.7293661 125.967289,79.8244935 126.103698,79.9555181 C126.239509,80.0877393 126.348995,80.2594474 126.429764,80.4724371 C126.511729,80.6854269 126.552413,80.9414932 126.552413,81.2406361 L126.552413,85.0469307 L127.775907,85.0469307 L127.775907,80.9008098 C127.775907,80.4748303 127.712489,80.1050896 127.585652,79.7927844 C127.458217,79.4798809 127.288902,79.2244128 127.075913,79.0245854 C126.862325,78.8253562 126.613438,78.6781779 126.328055,78.5830504 C126.042673,78.487923 125.745923,78.4400601 125.437208,78.4400601 C124.938836,78.4400601 124.499694,78.546555 124.119184,78.760143 C123.738076,78.9731328 123.471241,79.2513357 123.317481,79.5959484 L123.28996,79.5959484 L123.28996,78.6033921 L122.065867,78.6033921 L122.065867,85.0469307 Z M135.71516,82.2732775 L135.71516,81.8383237 C135.71516,81.4219167 135.658323,81.0120909 135.545247,80.6088463 C135.432171,80.2056016 135.248497,79.8430404 134.994824,79.5205643 C134.740553,79.1992848 134.41688,78.9390305 134.02261,78.739203 C133.628339,78.5399738 133.146121,78.4400601 132.574758,78.4400601 C132.094933,78.4400601 131.650406,78.5262133 131.242375,78.6985196 C130.834943,78.8702276 130.483151,79.1083454 130.188794,79.4122746 C129.893839,79.7162038 129.663499,80.0733805 129.495979,80.486796 C129.327861,80.8984166 129.244101,81.3447379 129.244101,81.8251614 C129.244101,82.3061832 129.321279,82.7519062 129.475637,83.1641251 C129.629397,83.5769423 129.848968,83.9347173 130.13435,84.2380482 C130.420331,84.5419774 130.769131,84.7800952 131.18135,84.9518032 C131.593569,85.1235112 132.053651,85.2102627 132.561596,85.2102627 C133.784492,85.2102627 134.736365,84.7705226 135.416017,83.8916407 L134.491666,83.1850651 C134.255343,83.4746355 133.997482,83.7079669 133.716886,83.8850596 C133.435691,84.0615539 133.104839,84.1501002 132.724329,84.1501002 C132.443733,84.1501002 132.171513,84.1046305 131.908866,84.0142893 C131.64562,83.9233498 131.41528,83.7965132 131.215452,83.6331812 C131.016223,83.4698492 130.855284,83.2730131 130.733234,83.0420748 C130.610585,82.8111365 130.54956,82.5550701 130.54956,82.2732775 L135.71516,82.2732775 Z M130.54956,81.2950801 C130.54956,81.0779024 130.596825,80.8583315 130.691952,80.6351709 C130.78708,80.4138051 130.921096,80.2121828 131.092804,80.0309022 C131.26511,79.8496215 131.475707,79.7018449 131.725192,79.5893672 C131.974677,79.4756929 132.248692,79.4188557 132.547237,79.4188557 C132.855354,79.4188557 133.125181,79.4667186 133.356717,79.5618461 C133.587656,79.6569735 133.780304,79.7885964 133.934063,79.9555181 C134.088421,80.1236365 134.20389,80.3204725 134.280471,80.5478211 C134.358248,80.7739732 134.400726,81.0234584 134.410299,81.2950801 L130.54956,81.2950801 Z M137.183354,85.0469307 L138.406848,85.0469307 L138.406848,81.7300339 C138.406848,81.3584984 138.45172,81.0366207 138.542659,80.7649989 C138.633599,80.4933771 138.760435,80.2690199 138.923767,80.0919273 C139.086501,79.915433 139.276756,79.7862033 139.494532,79.7042381 C139.71171,79.6234695 139.948033,79.5821878 140.201706,79.5821878 C140.391961,79.5821878 140.575036,79.6115038 140.752129,79.6701358 C140.929221,79.7293661 141.085374,79.8244935 141.221185,79.9555181 C141.356996,80.0877393 141.465884,80.2594474 141.547849,80.4724371 C141.628618,80.6854269 141.669899,80.9414932 141.669899,81.2406361 L141.669899,85.0469307 L142.893394,85.0469307 L142.893394,80.9008098 C142.893394,80.4748303 142.829976,80.1050896 142.703139,79.7927844 C142.576302,79.4798809 142.405791,79.2244128 142.193399,79.0245854 C141.98041,78.8253562 141.731523,78.6781779 141.444944,78.5830504 C141.16016,78.487923 140.862812,78.4400601 140.554694,78.4400601 C140.056322,78.4400601 139.616582,78.546555 139.236671,78.760143 C138.855563,78.9731328 138.588129,79.2513357 138.434369,79.5959484 L138.406848,79.5959484 L138.406848,74.7701748 L137.183354,74.7701748 L137.183354,85.0469307 Z M144.742097,85.0469307 L145.96619,85.0469307 L145.96619,81.7031111 C145.96619,81.3399516 146.011061,81.0252532 146.101402,80.7578195 C146.192342,80.490984 146.314392,80.2714131 146.46875,80.0985085 C146.623108,79.9268004 146.801995,79.7969724 147.005412,79.7114175 C147.209428,79.6252644 147.420623,79.5821878 147.637801,79.5821878 C147.936345,79.5821878 148.174463,79.6342386 148.351556,79.7383404 C148.528648,79.8430404 148.664459,79.9884239 148.759586,80.1732942 C148.854714,80.3599594 148.918132,80.5795303 148.949841,80.8332035 C148.981551,81.0868767 148.997704,81.3674727 148.997704,81.6755899 L148.997704,85.0469307 L150.220601,85.0469307 L150.220601,81.5260185 C150.220601,80.9552538 150.347437,80.4885908 150.601709,80.1260296 C150.855382,79.7634684 151.276575,79.5821878 151.865887,79.5821878 C152.164431,79.5821878 152.404942,79.6342386 152.586223,79.7383404 C152.767503,79.8430404 152.908101,79.9806461 153.007416,80.1535508 C153.10733,80.3252588 153.173141,80.5250863 153.20485,80.7512383 C153.236559,80.9779886 153.252115,81.2137133 153.252115,81.4584122 L153.252115,85.0469307 L154.476208,85.0469307 L154.476208,81.2950801 C154.476208,80.9325189 154.442105,80.5813251 154.373901,80.2414988 C154.305696,79.9016724 154.181253,79.5983415 154.00057,79.3303094 C153.81929,79.063474 153.569805,78.8480911 153.252115,78.684759 C152.935023,78.5220253 152.527591,78.4400601 152.029219,78.4400601 C151.639136,78.4400601 151.254438,78.5399738 150.872732,78.739203 C150.492821,78.9390305 150.197866,79.2375751 149.989662,79.6366318 C149.781459,79.2375751 149.513427,78.9390305 149.187959,78.739203 C148.861295,78.5399738 148.45805,78.4400601 147.977627,78.4400601 C147.687458,78.4400601 147.423016,78.4831367 147.182505,78.5698881 C146.941994,78.6560413 146.733192,78.760143 146.557296,78.8821933 C146.380204,79.0048419 146.23482,79.1334734 146.122342,79.2692843 C146.008668,79.4056935 145.938669,79.5187695 145.911148,79.6091106 L145.884225,79.6091106 L145.884225,78.6033921 L144.742097,78.6033921 L144.742097,85.0469307 Z M162.415461,82.2732775 L162.415461,81.8383237 C162.415461,81.4219167 162.358624,81.0120909 162.244949,80.6088463 C162.131275,80.2056016 161.947601,79.8430404 161.694526,79.5205643 C161.440853,79.1992848 161.117181,78.9390305 160.722312,78.739203 C160.328042,78.5399738 159.845823,78.4400601 159.27446,78.4400601 C158.794037,78.4400601 158.350109,78.5262133 157.942676,78.6985196 C157.534645,78.8702276 157.182853,79.1083454 156.889095,79.4122746 C156.59414,79.7162038 156.363201,80.0733805 156.195083,80.486796 C156.027563,80.8984166 155.943803,81.3447379 155.943803,81.8251614 C155.943803,82.3061832 156.020982,82.7519062 156.175339,83.1641251 C156.329099,83.5769423 156.549268,83.9347173 156.834052,84.2380482 C157.119435,84.5419774 157.468235,84.7800952 157.881052,84.9518032 C158.293271,85.1235112 158.753353,85.2102627 159.261298,85.2102627 C160.484194,85.2102627 161.436067,84.7705226 162.11572,83.8916407 L161.191368,83.1850651 C160.955643,83.4746355 160.697782,83.7079669 160.416588,83.8850596 C160.135992,84.0615539 159.804541,84.1501002 159.424032,84.1501002 C159.143436,84.1501002 158.871215,84.1046305 158.609166,84.0142893 C158.345921,83.9233498 158.114384,83.7965132 157.915155,83.6331812 C157.715926,83.4698492 157.554388,83.2730131 157.432338,83.0420748 C157.310886,82.8111365 157.249263,82.5550701 157.249263,82.2732775 L162.415461,82.2732775 Z M157.249263,81.2950801 C157.249263,81.0779024 157.296527,80.8583315 157.391655,80.6351709 C157.486782,80.4138051 157.6202,80.2121828 157.792506,80.0309022 C157.965411,79.8496215 158.175409,79.7018449 158.425493,79.5893672 C158.674379,79.4756929 158.948993,79.4188557 159.247537,79.4188557 C159.555654,79.4188557 159.825481,79.4667186 160.055821,79.5618461 C160.287358,79.6569735 160.480006,79.7885964 160.634364,79.9555181 C160.788123,80.1236365 160.904191,80.3204725 160.980771,80.5478211 C161.05795,80.7739732 161.101027,81.0234584 161.110599,81.2950801 L157.249263,81.2950801 Z M163.883056,85.0469307 L165.107149,85.0469307 L165.107149,81.7300339 C165.107149,81.3584984 165.15202,81.0366207 165.242361,80.7649989 C165.333301,80.4933771 165.460137,80.2690199 165.62347,80.0919273 C165.786802,79.915433 165.977056,79.7862033 166.194234,79.7042381 C166.41201,79.6234695 166.647735,79.5821878 166.901408,79.5821878 C167.091663,79.5821878 167.275337,79.6115038 167.451831,79.6701358 C167.628325,79.7293661 167.785076,79.8244935 167.920887,79.9555181 C168.056698,80.0877393 168.165586,80.2594474 168.246953,80.4724371 C168.328918,80.6854269 168.369003,80.9414932 168.369003,81.2406361 L168.369003,85.0469307 L169.593096,85.0469307 L169.593096,80.9008098 C169.593096,80.4748303 169.529678,80.1050896 169.402841,79.7927844 C169.276005,79.4798809 169.105493,79.2244128 168.892503,79.0245854 C168.679514,78.8253562 168.430627,78.6781779 168.145244,78.5830504 C167.859862,78.487923 167.562514,78.4400601 167.254397,78.4400601 C166.756025,78.4400601 166.316883,78.546555 165.936373,78.760143 C165.555265,78.9731328 165.288429,79.2513357 165.134072,79.5959484 L165.107149,79.5959484 L165.107149,78.6033921 L163.883056,78.6033921 L163.883056,85.0469307 L163.883056,85.0469307 Z" id="Fill-2"/><path d="M53.9169217,69.1534673 L57.0573241,69.1534673 C57.9176592,69.1534673 58.6768839,69.0182547 59.3338018,68.7460346 C59.9913179,68.4738146 60.5417409,68.1136465 60.9862673,67.6649321 C61.4301953,67.2162177 61.7652354,66.7046833 61.9919858,66.1285341 C62.2181378,65.5535814 62.3318121,64.9570904 62.3318121,64.340856 C62.3318121,64.0423113 62.300103,63.7156473 62.2366847,63.3626586 C62.1732664,63.0084734 62.0691646,62.6554848 61.9237812,62.3018978 C61.7783977,61.9483109 61.5815617,61.6042965 61.3326748,61.2686582 C61.0831896,60.9336181 60.7708843,60.63627 60.3945626,60.3784088 C60.0182408,60.1199494 59.5743127,59.9135407 59.0627783,59.7597813 C58.5500473,59.6054235 57.9547529,59.5288429 57.2751002,59.5288429 L53.9169217,59.5288429 L53.9169217,69.1534673 Z M55.2217832,60.7523375 L57.1799727,60.7523375 C57.9589409,60.7523375 58.5931239,60.8809689 59.0825217,61.1400267 C59.5719195,61.3978879 59.9548225,61.7125863 60.2312305,62.0841218 C60.5076386,62.4556573 60.6955003,62.8481328 60.7960124,63.2603517 C60.8953278,63.673169 60.9449855,64.0327388 60.9449855,64.340856 C60.9449855,64.9397401 60.8366958,65.4632402 60.6189197,65.9113563 C60.401742,66.3600707 60.1067871,66.7339993 59.7352516,67.032544 C59.3637161,67.3316869 58.9305571,67.5560441 58.4369713,67.7056155 C57.9427872,67.855187 57.4192871,67.9299727 56.8664709,67.9299727 L55.2217832,67.9299727 L55.2217832,60.7523375 Z M64.6567509,64.2600874 C64.7650406,64.1781222 64.8787149,64.0919691 64.9965772,64.0010296 C65.1138413,63.9112867 65.2448659,63.8317147 65.3902493,63.7635101 C65.5356328,63.6953055 65.6965717,63.6390667 65.873066,63.593597 C66.0501586,63.5481272 66.2559689,63.5253924 66.4916936,63.5253924 C66.7543411,63.5253924 66.9810914,63.5636827 67.1713463,63.6414598 C67.3616012,63.7180404 67.5201469,63.8227404 67.6469835,63.953765 C67.7738201,64.0853879 67.8689476,64.2325662 67.9329642,64.3953 C67.9957842,64.558632 68.0280916,64.721964 68.0280916,64.8852961 L68.0280916,65.1569179 L67.1312611,65.1569179 C66.641265,65.1569179 66.1811832,65.1952081 65.7510157,65.2717887 C65.3202499,65.3495659 64.9445264,65.4764025 64.6220503,65.6534951 C64.3007708,65.8293911 64.0470976,66.0585346 63.861629,66.339729 C63.6755621,66.620325 63.5828278,66.969724 63.5828278,67.3867292 C63.5828278,67.7032224 63.6414598,67.9820236 63.7587238,68.2225345 C63.8765862,68.4630454 64.0381233,68.6640695 64.2415405,68.8268032 C64.4461543,68.9907335 64.6830755,69.1133821 64.9552955,69.1941507 C65.2275156,69.2761159 65.5128979,69.3167993 65.8120409,69.3167993 C66.3014387,69.3167993 66.7316062,69.2300479 67.10374,69.0583398 C67.4752755,68.8866318 67.796555,68.5916769 68.068775,68.1746716 L68.0962962,68.1746716 C68.0962962,68.5013357 68.1094585,68.8268032 68.1363813,69.1534673 L69.224065,69.1534673 C69.2061164,68.9817592 69.1923559,68.8004786 69.1833816,68.6096254 C69.1744073,68.4193705 69.1702193,68.2111671 69.1702193,67.9844167 L69.1702193,64.6950412 C69.1702193,64.4138468 69.1175701,64.1440199 69.0140667,63.8861587 C68.9093667,63.627101 68.7484278,63.3985558 68.53125,63.1987283 C68.313474,63.0000974 68.0346728,62.8415516 67.6948464,62.7236893 C67.35502,62.6052287 66.9493822,62.5465967 66.477933,62.5465967 C66.0250306,62.5465967 65.5715299,62.6261687 65.1186276,62.7847145 C64.6657252,62.9432602 64.2666685,63.181378 63.9226542,63.4984695 L64.6567509,64.2600874 Z M68.0280916,66.0543466 L68.0280916,66.4617793 C68.0280916,66.6795553 67.9957842,66.8991262 67.9329642,67.1210903 C67.8689476,67.3436526 67.7648458,67.5452749 67.6200607,67.7265555 C67.4752755,67.9078362 67.2844223,68.0550145 67.049296,68.1680905 C66.8129731,68.2817648 66.528189,68.3380037 66.1925506,68.3380037 C65.7665711,68.3380037 65.4285396,68.2566368 65.1796527,68.0933048 C64.9301675,67.9299727 64.8057241,67.6631372 64.8057241,67.2916017 C64.8057241,67.0379285 64.8852961,66.8291268 65.0438418,66.6651965 C65.2023876,66.5024627 65.406403,66.3756261 65.6558882,66.285285 C65.9047752,66.1943455 66.1811832,66.1333203 66.4851124,66.1016112 C66.7884433,66.069902 67.0851931,66.0543466 67.37596,66.0543466 L68.0280916,66.0543466 Z M75.3283754,63.6073575 C75.0926508,63.2262494 74.7755593,62.9540294 74.3765027,62.7912956 C73.9780443,62.6285619 73.5610391,62.5465967 73.1260853,62.5465967 C72.8269423,62.5465967 72.5295943,62.5878785 72.2358359,62.668647 C71.940881,62.7506122 71.6782335,62.8732608 71.4466969,63.0359945 C71.2157586,63.1987283 71.03029,63.4051369 70.8896928,63.6546221 C70.7484973,63.903509 70.6784979,64.1966691 70.6784979,64.5311109 C70.6784979,64.8392281 70.7329419,65.0982858 70.8424282,65.305891 C70.9507179,65.5146928 71.0961014,65.6869991 71.277382,65.82281 C71.4580643,65.9592192 71.6662678,66.0675089 71.9025907,66.1494741 C72.1377171,66.2302427 72.386604,66.3032335 72.6498497,66.3666518 C72.7862589,66.394173 72.9424115,66.4282753 73.1189058,66.4683604 C73.2959984,66.5090439 73.4629202,66.5634879 73.6226625,66.6316925 C73.7812083,66.699897 73.9164209,66.7932296 74.0300952,66.9104937 C74.1431712,67.028356 74.1994101,67.1779274 74.1994101,67.359208 C74.1994101,67.4950189 74.1611198,67.6152744 74.0845392,67.7199744 C74.0073603,67.8234778 73.9074466,67.909631 73.7853963,67.9778356 C73.6627477,68.0454419 73.5221505,68.0956979 73.3636047,68.1274071 C73.205059,68.1591162 73.0489064,68.1746716 72.8945486,68.1746716 C72.54156,68.1746716 72.2424171,68.0980911 71.9977182,67.9437333 C71.7530193,67.7899738 71.5310552,67.6128812 71.3312277,67.413652 L70.4074744,68.1746716 C70.7245659,68.6096254 71.0841357,68.9087684 71.4879786,69.0721004 C71.890625,69.2354324 72.3602794,69.3167993 72.8945486,69.3167993 C73.2116401,69.3167993 73.5275351,69.2803039 73.8398403,69.2079113 C74.1527438,69.136117 74.4309467,69.0182547 74.6756456,68.8543244 C74.9209428,68.6915906 75.1195737,68.4803957 75.2739314,68.2225345 C75.4276909,67.9646733 75.5054681,67.654163 75.5054681,67.2916017 C75.5054681,66.9918605 75.4576052,66.7381873 75.3624777,66.5299839 C75.2673503,66.3211821 75.1351291,66.1446878 74.9676091,65.9999026 C74.8006873,65.8545191 74.6008599,65.7372551 74.3699215,65.6457174 C74.1383849,65.5559745 73.8912929,65.4787956 73.6292437,65.4153773 C73.4928345,65.3878562 73.3295024,65.356147 73.1392476,65.3202499 C72.9495909,65.2837545 72.7701052,65.2293104 72.6025852,65.1569179 C72.4344668,65.083927 72.2896817,64.9887995 72.1676313,64.8709372 C72.045581,64.7536732 71.9839576,64.5999137 71.9839576,64.4090606 C71.9839576,64.1733359 72.0904525,63.9944485 72.3034422,63.8717999 C72.516432,63.7497496 72.767712,63.6887244 73.0578807,63.6887244 C73.3659979,63.6887244 73.6268505,63.7497496 73.8398403,63.8717999 C74.0522317,63.9944485 74.2311192,64.1464131 74.3765027,64.3276937 L75.3283754,63.6073575 Z M81.079099,69.1534673 L84.3822351,69.1534673 C84.8536843,69.1534673 85.2928261,69.0948353 85.7008571,68.976973 C86.1082897,68.8597089 86.466663,68.6868043 86.7747802,68.4606523 C87.0828974,68.2333037 87.3252031,67.9551007 87.5022957,67.624847 C87.6787901,67.2933966 87.7673364,66.9104937 87.7673364,66.4755398 C87.7673364,66.1494741 87.7122941,65.8455449 87.6040043,65.5649488 C87.4951163,65.2837545 87.3473397,65.0366624 87.1624694,64.8236726 C86.9758042,64.6106829 86.7562333,64.4389748 86.5025601,64.3067537 C86.2488869,64.1757291 85.9772651,64.1015416 85.6870965,64.0829948 L85.6870965,64.0554736 C86.1770926,63.8927399 86.5749527,63.6366735 86.8830699,63.2872746 C87.1911871,62.938474 87.3455449,62.4873664 87.3455449,61.9345503 C87.3455449,61.5271177 87.2707591,61.1717359 87.1211877,60.8678067 C86.9716162,60.5638774 86.768199,60.3149905 86.5091413,60.1199494 C86.2512801,59.9249082 85.9431628,59.7783281 85.5847896,59.6778161 C85.2270147,59.5785007 84.8393255,59.5288429 84.4229185,59.5288429 L81.079099,59.5288429 L81.079099,69.1534673 Z M82.3839604,60.6703723 L84.4360808,60.6703723 C84.9619741,60.6703723 85.3472701,60.8109695 85.5919691,61.0921638 C85.8372663,61.3727599 85.9593166,61.703612 85.9593166,62.0841218 C85.9593166,62.3473675 85.9114537,62.5693316 85.8163262,62.7506122 C85.7211988,62.9318928 85.5919691,63.0814643 85.428637,63.1987283 C85.2659033,63.3171889 85.0756484,63.4009489 84.8578723,63.4506066 C84.6406946,63.5002644 84.4091579,63.5253924 84.1650573,63.5253924 L82.3839604,63.5253924 L82.3839604,60.6703723 Z M82.3839604,64.66752 L84.3140305,64.66752 C84.9488118,64.66752 85.4513719,64.8099121 85.8229074,65.0958927 C86.1944429,65.381275 86.3805098,65.8096477 86.3805098,66.3804124 C86.3805098,66.725025 86.3081172,67.0008348 86.1627337,67.2096366 C86.0173503,67.4184383 85.8414543,67.5835652 85.6326525,67.7056155 C85.4238507,67.8282641 85.2000918,67.909631 84.9595809,67.9503144 C84.71907,67.9909979 84.4994991,68.0119379 84.3008682,68.0119379 L82.3839604,68.0119379 L82.3839604,64.66752 Z M89.4257847,69.1534673 L90.6498776,69.1534673 L90.6498776,62.7093305 L89.4257847,62.7093305 L89.4257847,69.1534673 Z M89.405443,61.0305404 C89.5819373,61.207633 89.7925339,61.2961793 90.0372329,61.2961793 C90.2819318,61.2961793 90.4925284,61.207633 90.669621,61.0305404 C90.8467136,60.8540461 90.9340633,60.6434495 90.9340633,60.3987506 C90.9340633,60.1540516 90.8467136,59.943455 90.669621,59.7663624 C90.4925284,59.5892698 90.2819318,59.5019201 90.0372329,59.5019201 C89.7925339,59.5019201 89.5819373,59.5892698 89.405443,59.7663624 C89.2283504,59.943455 89.1398041,60.1540516 89.1398041,60.3987506 C89.1398041,60.6434495 89.2283504,60.8540461 89.405443,61.0305404 L89.405443,61.0305404 Z M92.6882374,69.1534673 L93.911732,69.1534673 L93.911732,58.8755148 L92.6882374,58.8755148 L92.6882374,69.1534673 Z M102.312862,58.8755148 L101.089965,58.8755148 L101.089965,63.6336821 L101.062444,63.6336821 C100.845267,63.2992403 100.532363,63.0336014 100.123734,62.8391585 C99.7163012,62.643519 99.2813474,62.5465967 98.8188724,62.5465967 C98.3205003,62.5465967 97.8693928,62.6327499 97.4661482,62.8050562 C97.0629035,62.9767642 96.7188891,63.214882 96.4335068,63.5188112 C96.1481244,63.8227404 95.9285535,64.1805154 95.7741958,64.592136 C95.6192398,65.0049533 95.5426592,65.4512745 95.5426592,65.931698 C95.5426592,66.4121215 95.6192398,66.8566479 95.7741958,67.2640806 C95.9285535,67.6715132 96.1481244,68.0298865 96.4335068,68.3380037 C96.7188891,68.6467192 97.0629035,68.8866318 97.4661482,69.0583398 C97.8693928,69.2300479 98.3205003,69.3167993 98.8188724,69.3167993 C99.2538262,69.3167993 99.6780109,69.2216719 100.09023,69.031417 C100.503047,68.8411621 100.82672,68.5737283 101.062444,68.2291157 L101.089965,68.2291157 L101.089965,69.1534673 L102.312862,69.1534673 L102.312862,58.8755148 Z M98.0847757,68.0047585 C97.8221282,67.8916824 97.6001642,67.7373247 97.4188836,67.5428818 C97.237603,67.3484389 97.0970058,67.112116 96.9970921,66.8357079 C96.8977766,66.5592999 96.8475206,66.2577638 96.8475206,65.931698 C96.8475206,65.6050339 96.8977766,65.3046945 96.9970921,65.0270898 C97.0970058,64.7518783 97.237603,64.5155554 97.4188836,64.3211125 C97.6001642,64.1254731 97.8221282,63.9717136 98.0847757,63.8586376 C98.3480215,63.7449633 98.6423781,63.6887244 98.9684439,63.6887244 C99.295108,63.6887244 99.5894646,63.7449633 99.8527104,63.8586376 C100.115358,63.9717136 100.337322,64.1254731 100.518603,64.3211125 C100.699883,64.5155554 100.839882,64.7518783 100.940394,65.0270898 C101.039709,65.3046945 101.089965,65.6050339 101.089965,65.931698 C101.089965,66.2577638 101.039709,66.5592999 100.940394,66.8357079 C100.839882,67.112116 100.699883,67.3484389 100.518603,67.5428818 C100.337322,67.7373247 100.115358,67.8916824 99.8527104,68.0047585 C99.5894646,68.1184328 99.295108,68.1746716 98.9684439,68.1746716 C98.6423781,68.1746716 98.3480215,68.1184328 98.0847757,68.0047585 L98.0847757,68.0047585 Z M109.871605,62.7093305 L108.648111,62.7093305 L108.648111,66.0268255 C108.648111,66.398361 108.602043,66.7202388 108.5123,66.9918605 C108.42136,67.2640806 108.294524,67.4884378 108.131192,67.6649321 C107.968458,67.8420247 107.778203,67.9712545 107.560427,68.052023 C107.343249,68.1339882 107.106926,68.1746716 106.853253,68.1746716 C106.663596,68.1746716 106.479923,68.1459539 106.30283,68.0861253 C106.126336,68.0280916 105.969585,67.9329642 105.833774,67.800743 C105.697963,67.6697184 105.589075,67.4968138 105.508306,67.2850206 C105.426341,67.0714325 105.385658,66.8153662 105.385658,66.5168216 L105.385658,62.7093305 L104.161565,62.7093305 L104.161565,66.8566479 C104.161565,67.2826274 104.224983,67.6511715 104.35182,67.9646733 C104.478657,68.2769785 104.649168,68.5330449 104.862158,68.7316758 C105.074549,68.9315032 105.321641,69.0792798 105.603434,69.1744073 C105.883432,69.2695347 106.182575,69.3167993 106.500264,69.3167993 C106.998636,69.3167993 107.438377,69.2103044 107.818288,68.9973147 C108.199994,68.7843249 108.46683,68.5055237 108.620589,68.1615093 L108.648111,68.1615093 L108.648111,69.1534673 L109.871605,69.1534673 L109.871605,62.7093305 Z M111.720907,69.1534673 L112.943803,69.1534673 L112.943803,65.8365706 C112.943803,65.4650351 112.989273,65.1431573 113.080212,64.8709372 C113.169955,64.5999137 113.297988,64.3749583 113.460722,64.1984639 C113.623456,64.0219696 113.81371,63.8927399 114.031487,63.8107747 C114.248664,63.7288096 114.484389,63.6887244 114.738062,63.6887244 C114.928317,63.6887244 115.111991,63.7180404 115.289083,63.7766724 C115.466176,63.8359027 115.622329,63.9310302 115.758139,64.0620548 C115.894549,64.1942759 116.002838,64.365984 116.084205,64.5789737 C116.165572,64.7919635 116.206854,65.0480298 116.206854,65.3471728 L116.206854,69.1534673 L117.42975,69.1534673 L117.42975,65.0073464 C117.42975,64.5813669 117.366332,64.2122245 117.239495,63.899321 C117.112659,63.5870158 116.942745,63.3309495 116.730354,63.131122 C116.517364,62.9318928 116.267879,62.7847145 115.981898,62.689587 C115.696516,62.5944596 115.399766,62.5465967 115.092247,62.5465967 C114.593277,62.5465967 114.153537,62.6536899 113.773027,62.8666797 C113.393116,63.0796694 113.125083,63.3584706 112.971324,63.702485 L112.943803,63.702485 L112.943803,62.7093305 L111.720907,62.7093305 L111.720907,69.1534673 Z M125.736351,62.7093305 L124.513454,62.7093305 L124.513454,63.6336821 L124.485933,63.6336821 C124.250209,63.2896677 123.925938,63.0228323 123.513719,62.8319791 C123.1015,62.6417242 122.677914,62.5465967 122.24296,62.5465967 C121.743989,62.5465967 121.292882,62.6327499 120.889637,62.8050562 C120.486392,62.9767642 120.142378,63.2172752 119.856996,63.5253924 C119.571613,63.8335096 119.351444,64.1942759 119.197685,64.6064949 C119.043327,65.0187138 118.966148,65.4608471 118.966148,65.931698 C118.966148,66.4031473 119.048113,66.8398959 119.210847,67.2437389 C119.374179,67.6469835 119.600331,67.9963825 119.891098,68.2901408 C120.180668,68.5850957 120.527076,68.8160341 120.930919,68.9841524 C121.333565,69.1516724 121.77151,69.2354324 122.24296,69.2354324 C122.68629,69.2354324 123.110474,69.1426981 123.513719,68.9566312 C123.916963,68.7711626 124.236448,68.4827888 124.472173,68.0933048 L124.513454,68.0933048 L124.513454,69.0445793 C124.513454,69.3167993 124.476361,69.5866262 124.403968,69.85406 C124.330977,70.1208955 124.207132,70.3590132 124.030638,70.567815 C123.853545,70.7754202 123.616026,70.9459317 123.316883,71.0769563 C123.01774,71.2085791 122.641418,71.2743906 122.187917,71.2743906 C121.717066,71.2743906 121.295275,71.1864426 120.923739,71.00935 C120.552204,70.8322573 120.207591,70.572003 119.891098,70.2279886 L119.061276,71.26063 C119.523751,71.6866095 120.010755,71.9863507 120.522888,72.1580588 C121.035021,72.3303651 121.599204,72.4165183 122.215439,72.4165183 C122.741332,72.4165183 123.221755,72.3345531 123.656709,72.1718193 C124.091663,72.0084873 124.463198,71.7799421 124.771316,71.4849872 C125.079433,71.1906306 125.316952,70.8412316 125.485071,70.4385853 C125.652591,70.0347423 125.736351,69.5884211 125.736351,69.0990233 L125.736351,62.7093305 Z M123.276199,63.8586376 C123.538847,63.9717136 123.760811,64.1254731 123.942091,64.3211125 C124.123372,64.5155554 124.263371,64.7518783 124.363883,65.0270898 C124.463198,65.3046945 124.513454,65.6050339 124.513454,65.931698 C124.513454,66.5844279 124.322601,67.107928 123.942091,67.5021984 C123.561582,67.8958704 123.044663,68.0933048 122.392531,68.0933048 C121.739801,68.0933048 121.222882,67.8958704 120.842373,67.5021984 C120.461264,67.107928 120.27101,66.5844279 120.27101,65.931698 C120.27101,65.6050339 120.321266,65.3046945 120.421179,65.0270898 C120.520495,64.7518783 120.661092,64.5155554 120.842373,64.3211125 C121.024251,64.1254731 121.245617,63.9717136 121.508265,63.8586376 C121.77151,63.7449633 122.065867,63.6887244 122.392531,63.6887244 C122.717999,63.6887244 123.012954,63.7449633 123.276199,63.8586376 L123.276199,63.8586376 Z M131.962711,63.6073575 C131.726987,63.2262494 131.410494,62.9540294 131.011437,62.7912956 C130.61238,62.6285619 130.195375,62.5465967 129.760421,62.5465967 C129.461877,62.5465967 129.164529,62.5878785 128.869574,62.668647 C128.575815,62.7506122 128.31257,62.8732608 128.081631,63.0359945 C127.850095,63.1987283 127.664626,63.4051369 127.524029,63.6546221 C127.383432,63.903509 127.313432,64.1966691 127.313432,64.5311109 C127.313432,64.8392281 127.367876,65.0982858 127.476166,65.305891 C127.585652,65.5146928 127.729839,65.6869991 127.91112,65.82281 C128.0924,65.9592192 128.301202,66.0675089 128.536927,66.1494741 C128.772651,66.2302427 129.021538,66.3032335 129.284784,66.3666518 C129.420595,66.394173 129.576748,66.4282753 129.75384,66.4683604 C129.930334,66.5090439 130.097855,66.5634879 130.2564,66.6316925 C130.414946,66.699897 130.551355,66.7932296 130.664431,66.9104937 C130.777507,67.028356 130.834344,67.1779274 130.834344,67.359208 C130.834344,67.4950189 130.796054,67.6152744 130.718875,67.7199744 C130.642295,67.8234778 130.542381,67.909631 130.420331,67.9778356 C130.297682,68.0454419 130.157085,68.0956979 129.998539,68.1274071 C129.839993,68.1591162 129.683841,68.1746716 129.529483,68.1746716 C129.175896,68.1746716 128.877351,68.0980911 128.632054,67.9437333 C128.387355,67.7899738 128.164793,67.6128812 127.965564,67.413652 L127.041212,68.1746716 C127.358304,68.6096254 127.71907,68.9087684 128.122315,69.0721004 C128.525559,69.2354324 128.994017,69.3167993 129.529483,69.3167993 C129.846574,69.3167993 130.161273,69.2803039 130.474176,69.2079113 C130.786482,69.136117 131.065283,69.0182547 131.309982,68.8543244 C131.554681,68.6915906 131.754508,68.4803957 131.908866,68.2225345 C132.062625,67.9646733 132.139206,67.654163 132.139206,67.2916017 C132.139206,66.9918605 132.091941,66.7381873 131.996814,66.5299839 C131.901686,66.3211821 131.770063,66.1446878 131.602543,65.9999026 C131.434425,65.8545191 131.235794,65.7372551 131.004258,65.6457174 C130.773319,65.5559745 130.526227,65.4787956 130.262981,65.4153773 C130.127171,65.3878562 129.964437,65.356147 129.774182,65.3202499 C129.583329,65.2837545 129.40504,65.2293104 129.236921,65.1569179 C129.069401,65.083927 128.924018,64.9887995 128.801967,64.8709372 C128.679319,64.7536732 128.618294,64.5999137 128.618294,64.4090606 C128.618294,64.1733359 128.725387,63.9944485 128.938377,63.8717999 C129.150768,63.7497496 129.402048,63.6887244 129.692217,63.6887244 C130.000932,63.6887244 130.261187,63.7497496 130.474176,63.8717999 C130.687166,63.9944485 130.866054,64.1464131 131.011437,64.3276937 L131.962711,63.6073575 Z M133.173044,66.4348564 L136.516863,66.4348564 L136.516863,65.2927287 L133.173044,65.2927287 L133.173044,66.4348564 Z M147.406264,62.7093305 L146.182171,62.7093305 L146.182171,66.0268255 C146.182171,66.398361 146.1373,66.7202388 146.046958,66.9918605 C145.956019,67.2640806 145.829182,67.4884378 145.666449,67.6649321 C145.502518,67.8420247 145.312263,67.9712545 145.095086,68.052023 C144.87731,68.1339882 144.641585,68.1746716 144.387912,68.1746716 C144.197657,68.1746716 144.013983,68.1459539 143.836891,68.0861253 C143.660995,68.0280916 143.504842,67.9329642 143.368433,67.800743 C143.232622,67.6697184 143.123734,67.4968138 143.042367,67.2850206 C142.960402,67.0714325 142.920317,66.8153662 142.920317,66.5168216 L142.920317,62.7093305 L141.696224,62.7093305 L141.696224,66.8566479 C141.696224,67.2826274 141.759642,67.6511715 141.886479,67.9646733 C142.013315,68.2769785 142.183827,68.5330449 142.396817,68.7316758 C142.609208,68.9315032 142.856898,69.0792798 143.137494,69.1744073 C143.418689,69.2695347 143.717233,69.3167993 144.034923,69.3167993 C144.533295,69.3167993 144.972437,69.2103044 145.352947,68.9973147 C145.734055,68.7843249 146.00089,68.5055237 146.155248,68.1615093 L146.182171,68.1615093 L146.182171,69.1534673 L147.406264,69.1534673 L147.406264,62.7093305 Z M149.254967,69.1534673 L150.478462,69.1534673 L150.478462,65.8365706 C150.478462,65.4650351 150.523931,65.1431573 150.614871,64.8709372 C150.704614,64.5999137 150.832049,64.3749583 150.994782,64.1984639 C151.158114,64.0219696 151.348369,63.8927399 151.566145,63.8107747 C151.783921,63.7288096 152.019048,63.6887244 152.272721,63.6887244 C152.463574,63.6887244 152.64665,63.7180404 152.823144,63.7766724 C153.000237,63.8359027 153.156389,63.9310302 153.2922,64.0620548 C153.428609,64.1942759 153.536899,64.365984 153.618864,64.5789737 C153.700829,64.7919635 153.741513,65.0480298 153.741513,65.3471728 L153.741513,69.1534673 L154.964409,69.1534673 L154.964409,65.0073464 C154.964409,64.5813669 154.900991,64.2122245 154.774154,63.899321 C154.647317,63.5870158 154.478003,63.3309495 154.264415,63.131122 C154.051425,62.9318928 153.802538,62.7847145 153.517155,62.689587 C153.231175,62.5944596 152.934425,62.5465967 152.626308,62.5465967 C152.127936,62.5465967 151.688196,62.6536899 151.307686,62.8666797 C150.927176,63.0796694 150.659742,63.3584706 150.505385,63.702485 L150.478462,63.702485 L150.478462,62.7093305 L149.254967,62.7093305 L149.254967,69.1534673 Z M163.27101,58.8755148 L162.047515,58.8755148 L162.047515,63.6336821 L162.020592,63.6336821 C161.802816,63.2992403 161.490511,63.0336014 161.081882,62.8391585 C160.674449,62.643519 160.239495,62.5465967 159.77702,62.5465967 C159.278648,62.5465967 158.827541,62.6327499 158.424296,62.8050562 C158.021051,62.9767642 157.676439,63.214882 157.391056,63.5188112 C157.106272,63.8227404 156.886103,64.1805154 156.732344,64.592136 C156.577986,65.0049533 156.500807,65.4512745 156.500807,65.931698 C156.500807,66.4121215 156.577986,66.8566479 156.732344,67.2640806 C156.886103,67.6715132 157.106272,68.0298865 157.391056,68.3380037 C157.676439,68.6467192 158.021051,68.8866318 158.424296,69.0583398 C158.827541,69.2300479 159.278648,69.3167993 159.77702,69.3167993 C160.211974,69.3167993 160.636159,69.2216719 161.047779,69.031417 C161.461195,68.8411621 161.784269,68.5737283 162.020592,68.2291157 L162.047515,68.2291157 L162.047515,69.1534673 L163.27101,69.1534673 L163.27101,58.8755148 Z M159.042924,68.0047585 C158.780276,67.8916824 158.558312,67.7373247 158.377031,67.5428818 C158.195751,67.3484389 158.054555,67.112116 157.95524,66.8357079 C157.855924,66.5592999 157.805668,66.2577638 157.805668,65.931698 C157.805668,65.6050339 157.855924,65.3046945 157.95524,65.0270898 C158.054555,64.7518783 158.195751,64.5155554 158.377031,64.3211125 C158.558312,64.1254731 158.780276,63.9717136 159.042924,63.8586376 C159.306169,63.7449633 159.601124,63.6887244 159.926592,63.6887244 C160.253256,63.6887244 160.547612,63.7449633 160.810858,63.8586376 C161.072907,63.9717136 161.294871,64.1254731 161.476152,64.3211125 C161.658031,64.5155554 161.79803,64.7518783 161.897944,65.0270898 C161.997857,65.3046945 162.047515,65.6050339 162.047515,65.931698 C162.047515,66.2577638 161.997857,66.5592999 161.897944,66.8357079 C161.79803,67.112116 161.658031,67.3484389 161.476152,67.5428818 C161.294871,67.7373247 161.072907,67.8916824 160.810858,68.0047585 C160.547612,68.1184328 160.253256,68.1746716 159.926592,68.1746716 C159.601124,68.1746716 159.306169,68.1184328 159.042924,68.0047585 L159.042924,68.0047585 Z" id="Fill-3"/><path d="M28.7476347,23.8416908 C27.1573909,22.1168327 25.3074911,20.8442787 23.1949438,20.0276185 C21.0835931,19.2097618 18.846004,18.8005343 16.4857664,18.8005343 C14.0333927,18.8005343 11.7958037,19.2217275 9.77599065,20.0611226 C7.75438279,20.9017142 6.01755899,22.0707647 4.56432268,23.5688724 C3.11048809,25.0681768 1.98630899,26.8397011 1.19238368,28.8834456 C0.397261799,30.9265917 0,33.1516168 0,35.559119 C0,38.0108944 0.397261799,40.2586543 1.19238368,42.3023987 C1.98630899,44.3461431 3.09971894,46.1176675 4.53081868,47.6163736 C5.96072184,49.1144813 7.69754564,50.2727627 9.74129007,51.0900211 C11.7850345,51.9078779 14.0333927,52.3165071 16.4857664,52.3165071 C18.8017309,52.3165071 21.004021,51.9078779 23.0932352,51.0900211 C25.1812528,50.2727627 26.9988452,48.9786704 28.5430209,47.207146 L24.5925395,43.4606801 C22.684606,46.0955309 19.9821488,47.4117598 16.4857664,47.4117598 C14.8506512,47.4117598 13.37468,47.1054374 12.0578528,46.4921945 C10.7404274,45.8789515 9.61624833,45.0269924 8.68591385,43.9375139 C7.75438279,42.8480354 7.02746549,41.5874471 6.50576024,40.1569457 C5.98285841,38.7258459 5.72260407,37.1930376 5.72260407,35.559119 C5.72260407,33.9234055 5.94875612,32.3911955 6.40405165,30.960694 C6.85755232,29.5295943 7.52763246,28.2696043 8.41369379,27.1801258 C9.29915683,26.0894507 10.4227376,25.2380899 11.7850345,24.6254452 C13.1473314,24.0122022 14.7148403,23.7052816 16.4857664,23.7052816 C18.0748136,23.7052816 19.5274516,24.0122022 20.8454753,24.6254452 C22.1623024,25.2380899 23.3881901,26.2258599 24.5237366,27.588755 L28.7476347,23.8416908" id="Fill-4"/><path d="M74.7964993,51.4992487 L80.1092776,51.4992487 L80.1092776,0 L74.7964993,0 L74.7964993,24.2509183 L74.6600902,24.2509183 C73.2062556,22.5254619 71.5149015,21.1853016 69.5848314,20.2310357 C67.6535647,19.2779664 65.5320431,18.8011326 63.2154803,18.8011326 C60.7176369,18.8011326 58.4351764,19.2211292 56.3698937,20.0611226 C54.3022178,20.9023124 52.5426592,22.0707647 51.0900211,23.5694707 C49.6361866,25.0681768 48.5018366,26.8391028 47.6839799,28.8828473 C46.8667214,30.9265917 46.4580922,33.152215 46.4580922,35.5585207 C46.4580922,37.9660229 46.8667214,40.191048 47.6839799,42.2347924 C48.5018366,44.2785368 49.6254174,46.0494629 51.0565171,47.548169 C52.4864203,49.046875 54.1777744,50.2165238 56.1305794,51.0559189 C58.0827861,51.8965105 60.1725985,52.3165071 62.3982218,52.3165071 C65.2592247,52.3165071 67.7678373,51.6912984 69.925256,50.4432742 C72.0814782,49.1946516 73.6609528,47.6618433 74.6600902,45.8448492 L74.7964993,45.8448492 L74.7964993,51.4992487 Z M74.0127449,40.2251503 C73.4904413,41.6556517 72.7288235,42.9048726 71.7308827,43.9716162 C70.731147,45.0395564 69.5387634,45.8789515 68.1543299,46.4921945 C66.7686999,47.1048392 65.213755,47.4117598 63.4882986,47.4117598 C61.7616457,47.4117598 60.2061025,47.1048392 58.8216691,46.4921945 C57.4354408,45.8789515 56.2436554,45.0395564 55.2451163,43.9716162 C54.2453807,42.9048726 53.4849594,41.6556517 52.9638524,40.2251503 C52.4409506,38.7940505 52.180098,37.2391056 52.180098,35.5585207 C52.180098,33.8791323 52.4409506,32.3223926 52.9638524,30.8924894 C53.4849594,29.461988 54.2453807,28.2133654 55.2451163,27.1460235 C56.2436554,26.0792798 57.4354408,25.2386882 58.8216691,24.624847 C60.2061025,24.0122022 61.7616457,23.7058799 63.4882986,23.7058799 C65.213755,23.7058799 66.7686999,24.0122022 68.1543299,24.624847 C69.5387634,25.2386882 70.731147,26.0792798 71.7308827,27.1460235 C72.7288235,28.2133654 73.4904413,29.461988 74.0127449,30.8924894 C74.5344501,32.3223926 74.7964993,33.8791323 74.7964993,35.5585207 C74.7964993,37.2391056 74.5344501,38.7940505 74.0127449,40.2251503 L74.0127449,40.2251503 Z" id="Fill-5"/><path d="M35.0140806,9.94530554 C35.7403996,10.6722228 36.6713324,11.0347841 37.8068789,11.0347841 C38.9412289,11.0347841 39.8733582,10.6722228 40.6002755,9.94530554 C41.3253979,9.21898653 41.689754,8.28805376 41.689754,7.15250724 C41.689754,6.10790016 41.3152271,5.20030053 40.5661732,4.42791351 C39.816521,3.65552649 38.8969557,3.26963212 37.8068789,3.26963212 C36.7174004,3.26963212 35.797835,3.65552649 35.0481829,4.42791351 C34.299129,5.20030053 33.9246021,6.10790016 33.9246021,7.15250724 C33.9246021,8.28805376 34.2871633,9.21898653 35.0140806,9.94530554" id="Fill-6"/><path d="M40.4638663,19.618391 L35.1504898,19.618391 L35.1504898,56.1993822 C35.1504898,57.1069819 35.0930543,57.9703083 34.9805766,58.7881651 C34.866304,59.6054235 34.6503228,60.3209734 34.3332313,60.9342164 C34.0143449,61.5468611 33.5494768,62.0338658 32.9368321,62.3982218 C32.3235892,62.7619796 31.5165016,62.9432602 30.5185608,62.9432602 C29.6552343,62.9432602 28.7925061,62.8074494 27.9291797,62.534631 L27.316535,67.16656 C27.9070431,67.4393783 28.5089186,67.6200607 29.1215633,67.7115984 C29.7348063,67.8019396 30.3588185,67.8480076 30.9947963,67.8480076 C32.947003,67.8480076 34.5480159,67.5183521 35.797835,66.8602376 C37.0458593,66.2015249 38.0120909,65.406403 38.6929402,64.4760686 C39.3743878,63.5445375 39.8392559,62.5454002 40.0893394,61.4786565 C40.3388246,60.4113146 40.4638663,59.4690144 40.4638663,58.6517559 L40.4638663,19.618391" id="Fill-7"/><path d="M36.7449215,86 C31.398041,86 26.1139804,84.6861643 21.3055571,82.102766 C13.7725401,78.054764 8.19113146,71.3078946 5.58858805,63.1047974 L10.1038513,61.6725011 C12.3318678,68.6939837 17.1061888,74.4680404 23.5485307,77.929124 C29.9902744,81.3908059 37.4401297,82.1853295 44.5250306,80.1685079 L45.8233109,84.7238563 C42.8288902,85.5764136 39.7764359,86 36.7449215,86" id="Fill-8"/></g></g></svg>