<svg xmlns="http://www.w3.org/2000/svg" version="1.0" width="100%" height="100%" viewBox="0 0 3000.000000 800.000000" preserveAspectRatio="xMidYMid meet">

<g transform="translate(0.000000,800.000000) scale(0.100000,-0.100000)" fill="#ffffff" stroke="none">
<path d="M15823 6060 c-346 -62 -526 -437 -361 -754 26 -50 114 -144 499 -531 279 -281 476 -488 491 -515 48 -85 63 -147 62 -260 -1 -112 -19 -179 -72 -265 -13 -22 -232 -249 -486 -505 -495 -498 -506 -511 -541 -645 -19 -76 -19 -184 0 -260 66 -252 323 -416 583 -371 160 28 141 12 817 687 531 529 614 609 640 609 26 0 108 -78 630 -598 347 -347 621 -612 650 -629 153 -95 351 -101 520 -16 67 35 175 145 208 213 76 158 76 309 0 470 -34 72 -57 97 -503 545 -345 346 -476 484 -498 525 -60 108 -78 254 -47 375 35 134 46 147 551 655 426 429 474 481 502 540 58 125 66 266 22 394 -81 236 -334 382 -576 332 -165 -33 -144 -15 -819 -688 -468 -466 -617 -608 -635 -608 -18 0 -165 140 -624 598 -345 344 -622 612 -651 629 -101 63 -249 93 -362 73z"/>
<path d="M20340 6054 c-179 -39 -316 -160 -377 -336 -45 -131 -28 -302 42 -425 17 -30 207 -228 495 -518 416 -419 471 -477 499 -535 31 -65 61 -179 61 -235 0 -56 -30 -170 -61 -235 -28 -58 -83 -116 -499 -535 -289 -290 -478 -488 -495 -518 -88 -153 -89 -373 -2 -517 64 -106 171 -192 287 -230 139 -46 312 -23 436 59 37 24 282 262 649 630 517 518 594 591 620 591 26 0 105 -75 635 -604 385 -384 622 -613 653 -631 167 -96 388 -90 545 15 218 146 290 424 172 661 -28 56 -94 126 -504 539 -421 424 -475 482 -503 540 -41 84 -53 136 -53 235 0 99 12 151 53 235 28 58 81 116 503 540 444 446 475 479 507 548 71 147 71 303 3 446 -81 167 -230 270 -423 291 -75 9 -187 -15 -273 -56 -59 -29 -124 -90 -677 -642 -606 -605 -612 -610 -645 -603 -27 5 -146 119 -643 614 -585 583 -613 610 -680 640 -68 30 -169 53 -230 51 -16 0 -59 -7 -95 -15z"/>
<path d="M25101 6059 c-30 -5 -89 -26 -130 -46 -92 -44 -193 -141 -233 -223 -61 -124 -58 -23 -58 -1785 0 -1764 -3 -1659 59 -1783 60 -118 174 -213 305 -255 l71 -22 1515 0 c1259 0 1524 2 1570 14 177 44 323 185 374 360 23 78 21 213 -4 293 -51 167 -203 309 -370 347 -30 7 -452 11 -1226 11 -836 0 -1190 3 -1213 11 -17 6 -36 19 -41 29 -6 12 -10 483 -10 1297 0 1086 -3 1288 -15 1348 -42 201 -199 358 -400 400 -78 16 -114 17 -194 4z"/>
<path d="M1390 3310 l0 -1360 205 0 205 0 0 575 0 575 568 2 567 3 3 182 2 183 -567 2 -568 3 0 415 0 415 663 3 662 2 0 180 0 180 -870 0 -870 0 0 -1360z"/>
<path d="M5300 3310 l0 -1360 193 2 192 3 5 660 c6 681 5 678 49 763 125 244 544 253 674 14 57 -104 57 -110 57 -804 l0 -638 195 0 195 0 0 668 c0 406 -4 692 -10 732 -26 162 -108 323 -208 410 -26 22 -83 59 -127 80 -248 123 -579 83 -771 -93 l-54 -49 0 486 0 486 -195 0 -195 0 0 -1360z"/>
<path d="M13630 4187 l0 -483 -57 54 c-121 112 -264 157 -478 149 -148 -5 -244 -31 -347 -93 -163 -99 -265 -301 -297 -587 -14 -123 -14 -478 -1 -605 41 -380 193 -592 480 -669 100 -27 322 -25 415 4 89 28 176 80 243 146 l52 51 0 -102 0 -102 190 0 190 0 0 1360 0 1360 -195 0 -195 0 0 -483z m-251 -644 c106 -34 191 -141 228 -290 26 -101 26 -558 0 -658 -38 -149 -97 -234 -195 -282 -49 -24 -72 -28 -162 -31 -87 -3 -115 0 -163 17 -163 57 -238 201 -257 491 -10 158 2 370 26 467 53 216 190 321 399 308 39 -2 95 -12 124 -22z"/>
<path d="M3727 3895 c-158 -30 -291 -100 -399 -212 l-48 -48 127 -118 126 -117 58 55 c97 93 192 125 369 125 167 0 273 -32 343 -105 56 -58 78 -128 84 -272 l6 -121 -339 -5 c-381 -5 -419 -10 -559 -77 -135 -65 -232 -182 -270 -325 -20 -77 -20 -243 0 -320 52 -204 195 -343 410 -400 92 -25 302 -31 408 -12 106 19 209 65 289 130 32 26 60 47 63 47 3 0 5 -38 5 -85 l0 -85 188 2 187 3 0 700 c0 642 -2 706 -18 778 -55 235 -210 383 -467 448 -113 28 -443 36 -563 14z m660 -1227 c-6 -175 -21 -228 -82 -295 -59 -67 -137 -101 -260 -116 -162 -19 -317 14 -388 81 -123 116 -89 356 61 428 76 36 131 42 406 43 l269 1 -6 -142z"/>
<path d="M8100 3890 c-104 -27 -208 -82 -277 -146 -31 -30 -59 -54 -60 -54 -2 0 -3 45 -3 100 l0 100 -190 0 -190 0 0 -970 0 -970 195 0 195 0 0 614 c0 375 4 634 10 667 14 71 58 163 104 216 23 27 65 56 113 80 71 35 82 38 167 37 106 0 161 -20 240 -86 l48 -41 147 147 146 147 -45 39 c-63 55 -146 97 -236 120 -103 27 -260 26 -364 0z"/>
<path d="M9700 3890 c-108 -29 -210 -82 -277 -145 -31 -30 -59 -55 -60 -55 -2 0 -3 45 -3 100 l0 100 -190 0 -190 0 0 -970 0 -970 195 0 194 0 3 648 3 647 23 57 c33 83 80 147 137 190 70 53 133 72 235 72 100 0 157 -21 234 -86 l48 -41 147 147 146 147 -30 25 c-63 54 -151 105 -214 126 -98 31 -299 35 -401 8z"/>
<path d="M10958 3895 c-156 -30 -272 -89 -385 -198 l-63 -60 106 -100 c58 -55 116 -109 129 -119 l24 -18 47 50 c53 57 142 105 223 120 69 13 233 13 302 0 88 -16 177 -67 215 -123 46 -66 55 -103 61 -244 l6 -121 -339 -4 c-308 -4 -346 -7 -419 -26 -219 -59 -361 -191 -410 -379 -34 -131 -10 -339 52 -456 39 -73 137 -168 210 -206 119 -59 199 -75 383 -76 228 0 327 29 460 137 33 26 62 48 65 48 3 0 5 -38 5 -85 l0 -85 188 2 187 3 0 700 c0 782 0 777 -71 925 -69 145 -215 251 -414 301 -113 28 -443 36 -562 14z m659 -1227 c-6 -169 -23 -232 -75 -290 -72 -80 -152 -113 -300 -124 -214 -16 -371 50 -413 172 -17 50 -17 158 0 207 27 78 101 137 206 163 33 8 141 13 319 13 l269 1 -6 -142z"/>
</g>
</svg>