<svg xmlns="http://www.w3.org/2000/svg" version="1.0" preserveAspectRatio="xMidYMid meet" viewBox="30 243.37 540 113.63">

<g transform="translate(0.000000,600.000000) scale(0.100000,-0.100000)" fill="#ffffff" stroke="none">
<path d="M3130 3562 l-35 -7 -3 -362 -2 -361 72 -7 c139 -13 262 22 312 88 73 96 45 246 -54 287 -38 16 -38 21 0 43 67 40 91 155 47 231 -35 62 -98 90 -211 92 -50 1 -107 -1 -126 -4z m199 -128 c49 -63 14 -159 -61 -171 l-38 -6 0 102 0 101 39 0 c31 0 44 -6 60 -26z m-11 -294 c90 -55 60 -193 -45 -207 l-43 -6 0 117 0 116 28 0 c15 0 42 -9 60 -20z"/>
<path d="M300 3195 l0 -365 188 0 188 0 158 308 c87 169 161 310 165 315 4 4 84 -134 177 -307 l169 -315 250 0 250 -1 15 33 c8 17 28 38 44 46 25 12 33 11 63 -3 21 -10 38 -27 45 -46 l10 -30 444 0 444 0 0 365 0 365 -1305 0 -1305 0 0 -365z m2027 260 c27 -8 58 -24 68 -35 l18 -20 -467 0 c-502 0 -508 1 -416 48 43 22 51 22 395 22 282 0 361 -3 402 -15z m-657 -215 l0 -140 -150 0 c-128 0 -152 2 -157 16 -9 25 15 115 52 193 l34 71 111 0 110 0 0 -140z m110 -90 l0 -230 -40 0 -40 0 0 230 0 230 40 0 40 0 0 -230z m681 199 c31 -44 69 -156 69 -206 l0 -43 -360 0 -360 0 0 140 0 140 314 0 315 0 22 -31z m-791 -369 l0 -80 70 0 69 0 3 78 3 77 358 3 357 2 0 -70 0 -71 -267 4 c-148 3 -285 8 -306 12 -46 9 -89 -7 -107 -41 l-13 -24 -179 0 -179 0 -40 84 c-21 46 -39 89 -39 95 0 7 43 11 135 11 l135 0 0 -80z m860 -95 c0 -13 -32 -15 -247 -13 -186 2 -247 6 -251 16 -3 9 51 12 247 12 218 0 251 -2 251 -15z"/>
<path d="M1499 3298 c-6 -12 -12 -44 -13 -72 l-1 -51 55 0 55 0 3 73 3 72 -45 0 c-36 0 -48 -4 -57 -22z"/>
<path d="M2160 3245 l0 -76 122 3 c141 3 140 2 113 93 l-16 55 -109 0 -110 0 0 -75z"/>
<path d="M3750 3354 c-83 -36 -130 -117 -138 -239 -13 -214 93 -319 290 -286 40 7 73 13 75 15 1 1 -1 22 -5 47 l-8 44 -81 0 c-70 0 -86 3 -103 20 -21 22 -42 79 -32 89 3 3 61 6 130 6 l124 0 -4 88 c-2 69 -8 98 -28 137 -42 82 -135 116 -220 79z m86 -92 c19 -13 34 -50 34 -86 l0 -36 -58 0 c-32 0 -61 2 -64 5 -9 10 12 89 29 107 17 19 40 23 59 10z"/>
<path d="M4281 3341 c-17 -16 -31 -34 -31 -40 0 -6 -4 -11 -10 -11 -5 0 -10 16 -10 35 l0 35 -66 0 c-64 0 -66 -1 -60 -22 3 -13 6 -132 6 -265 l0 -243 70 0 70 0 0 150 c0 157 8 198 46 232 11 9 33 18 49 20 30 3 30 4 33 71 l3 67 -34 0 c-25 0 -44 -9 -66 -29z"/>
<path d="M4552 3358 c-43 -15 -98 -77 -112 -127 -13 -50 2 -123 34 -166 23 -30 23 -30 4 -60 -21 -36 -24 -94 -4 -120 13 -18 11 -23 -15 -53 -24 -27 -29 -42 -29 -83 0 -44 4 -55 33 -84 41 -41 103 -59 184 -52 156 12 254 141 195 256 -29 58 -63 75 -158 82 -88 5 -109 15 -98 42 4 12 18 17 50 17 59 0 103 19 141 63 36 41 51 106 34 150 -16 42 -14 48 17 45 26 -3 27 -1 30 45 l3 47 -64 0 c-35 0 -97 2 -138 5 -41 2 -88 -1 -107 -7z m108 -103 c21 -25 24 -92 6 -120 -18 -27 -57 -34 -74 -12 -36 44 -14 147 31 147 14 0 30 -7 37 -15z m38 -437 c17 -17 15 -64 -4 -82 -59 -60 -159 -5 -126 69 10 22 18 25 65 25 29 0 58 -5 65 -12z"/>
<path d="M5060 3348 c-120 -61 -167 -267 -95 -413 45 -93 140 -130 269 -106 33 6 61 13 63 15 3 2 1 25 -2 50 l-7 46 -67 -6 c-99 -9 -151 24 -151 97 0 18 8 19 124 19 120 0 124 1 130 23 7 27 -2 119 -16 167 -34 113 -143 161 -248 108z m115 -101 c8 -13 16 -41 18 -63 l2 -39 -62 -3 c-61 -3 -63 -2 -63 22 0 84 69 138 105 83z"/>
<path d="M5618 3353 c-15 -9 -32 -27 -39 -40 -15 -28 -29 -20 -29 18 0 29 0 29 -60 29 l-60 0 0 -265 0 -265 70 0 70 0 0 143 c0 78 5 159 10 179 13 44 52 78 91 78 l29 0 0 70 c0 70 0 70 -27 70 -16 0 -40 -8 -55 -17z"/>
<path d="M947 2943 c-31 -56 -57 -104 -57 -107 0 -3 47 -6 105 -6 58 0 105 2 105 4 0 2 -22 50 -48 107 l-48 103 -57 -101z"/>
<path d="M331 2624 c-29 -37 -36 -87 -19 -132 15 -41 56 -67 89 -57 24 8 20 29 -7 34 -34 6 -44 22 -44 70 0 55 7 66 43 80 38 15 34 31 -7 31 -25 0 -40 -7 -55 -26z"/>
<path d="M466 2583 c-28 -124 -30 -153 -13 -153 8 0 20 14 26 31 12 35 43 37 49 4 5 -28 20 -41 32 -29 9 9 3 59 -26 192 -3 15 -12 22 -28 22 -22 0 -26 -7 -40 -67z m48 -25 c6 -31 4 -38 -9 -38 -17 0 -18 4 -9 49 8 38 9 37 18 -11z"/>
<path d="M606 2588 c-12 -135 -12 -153 4 -153 11 0 16 16 20 65 l5 65 12 -40 c6 -22 13 -49 15 -60 2 -11 11 -21 20 -23 13 -3 19 10 29 58 6 33 13 59 16 57 2 -2 7 -30 11 -62 10 -80 32 -86 32 -8 0 32 -3 82 -6 111 -6 42 -10 52 -26 52 -21 0 -22 -3 -38 -83 -7 -32 -14 -57 -16 -55 -2 3 -10 33 -17 69 -11 53 -17 65 -34 67 -19 3 -22 -3 -27 -60z"/>
<path d="M810 2539 c0 -100 2 -110 18 -107 12 2 18 15 20 46 3 34 7 42 23 42 28 0 59 36 59 68 0 40 -28 62 -78 62 l-42 0 0 -111z m75 46 c0 -20 -6 -31 -17 -33 -15 -3 -18 4 -18 33 0 29 3 36 18 33 11 -2 17 -13 17 -33z"/>
<path d="M962 2543 c2 -88 6 -108 18 -108 12 0 16 20 18 108 3 102 2 107 -18 107 -20 0 -21 -5 -18 -107z"/>
<path d="M1040 2546 c0 -99 1 -106 20 -106 18 0 20 7 21 68 l0 67 26 -67 c19 -51 30 -68 44 -68 17 0 19 9 19 105 0 100 -1 105 -21 105 -19 0 -20 -4 -14 -67 8 -78 0 -76 -31 5 -15 42 -26 58 -42 60 -21 3 -22 0 -22 -102z"/>
<path d="M1235 2626 c-26 -27 -41 -82 -31 -122 11 -43 51 -76 89 -72 32 3 32 4 35 61 3 55 2 57 -23 57 -16 0 -25 -6 -25 -15 0 -8 5 -15 10 -15 6 0 10 -11 10 -25 0 -18 -5 -25 -19 -25 -24 0 -45 56 -35 95 7 28 47 61 63 51 7 -5 21 14 21 30 0 2 -16 4 -35 4 -24 0 -44 -8 -60 -24z"/>
<path d="M1420 2566 c0 -69 4 -88 21 -110 24 -31 48 -33 80 -7 20 16 23 29 27 110 4 87 4 91 -17 91 -20 0 -21 -5 -21 -77 0 -84 -9 -109 -34 -100 -13 5 -16 23 -16 92 0 78 -2 85 -20 85 -18 0 -20 -7 -20 -84z"/>
<path d="M1590 2545 c0 -87 3 -105 15 -105 12 0 15 14 16 68 l0 67 27 -67 c19 -48 32 -68 44 -68 16 0 18 11 18 105 0 87 -3 105 -15 105 -12 0 -15 -14 -16 -67 l0 -68 -27 68 c-19 47 -32 67 -44 67 -16 0 -18 -11 -18 -105z"/>
<path d="M1762 2543 l3 -108 33 2 c63 2 100 69 82 148 -11 48 -32 65 -82 65 l-39 0 3 -107z m77 39 c13 -45 -2 -112 -24 -112 -12 0 -15 16 -15 75 0 59 3 75 15 75 8 0 19 -16 24 -38z"/>
<path d="M1972 2543 c3 -92 5 -108 20 -111 14 -3 17 6 20 45 3 41 6 48 26 51 31 5 29 32 -3 32 -21 0 -25 5 -25 30 0 25 4 30 25 30 16 0 25 6 25 15 0 11 -12 15 -45 15 l-46 0 3 -107z"/>
<path d="M2100 2545 c0 -98 1 -105 20 -105 17 0 20 7 20 40 0 29 4 40 15 40 10 0 17 -14 21 -40 5 -33 10 -40 29 -40 22 0 23 2 13 38 -5 20 -14 42 -18 47 -5 6 -2 19 6 29 36 50 6 96 -62 96 l-44 0 0 -105z m78 52 c4 -21 -16 -49 -29 -41 -5 3 -9 19 -9 35 0 24 4 30 17 27 10 -2 19 -11 21 -21z"/>
<path d="M2260 2540 l0 -110 45 0 c38 0 45 3 45 20 0 15 -7 20 -25 20 -21 0 -25 5 -25 30 0 25 4 30 25 30 16 0 25 6 25 15 0 9 -9 15 -25 15 -21 0 -25 5 -25 30 0 25 4 30 25 30 16 0 25 6 25 15 0 11 -12 15 -45 15 l-45 0 0 -110z"/>
<path d="M2390 2539 c0 -100 2 -110 18 -107 15 3 17 18 20 111 3 102 2 107 -18 107 -19 0 -20 -6 -20 -111z"/>
<path d="M2460 2635 c0 -10 10 -15 30 -15 17 0 30 -3 30 -6 0 -3 -16 -42 -35 -86 -22 -49 -32 -85 -27 -90 5 -5 31 -8 58 -6 37 2 50 7 52 21 3 13 -3 17 -27 17 -17 0 -31 5 -31 10 0 6 14 40 30 77 41 91 41 93 -25 93 -42 0 -55 -3 -55 -15z"/>
<path d="M2600 2540 l0 -110 45 0 c38 0 45 3 45 20 0 15 -7 20 -25 20 -21 0 -25 5 -25 29 0 23 5 30 22 33 32 5 35 28 4 28 -22 0 -26 4 -26 30 0 25 4 30 25 30 16 0 25 6 25 15 0 11 -12 15 -45 15 l-45 0 0 -110z"/>
<path d="M2730 2539 c0 -100 2 -110 18 -107 15 3 17 18 20 111 3 102 2 107 -18 107 -19 0 -20 -6 -20 -111z"/>
<path d="M2796 2635 c-4 -10 1 -15 14 -15 17 0 20 -9 22 -92 3 -79 6 -93 21 -96 15 -3 17 6 17 88 0 83 2 92 20 97 11 3 20 12 20 19 0 21 -106 20 -114 -1z"/>
</g>
</svg>