<svg xmlns="http://www.w3.org/2000/svg" xmlns:xlink="http://www.w3.org/1999/xlink" fill="none" viewBox="27.23 54.68 198.75 40.97"><clipPath id="a"><path d="m25.9766 54.46h200v41.6667h-200z"/></clipPath><clipPath id="b"><path d="m27.2266 54.5391h198.75v41.3889h-198.75z"/></clipPath><g clip-path="url(#a)"><g clip-path="url(#b)"><path d="m30.8377 62.3169c-1.9445 0-3.6111-1.5277-3.6111-3.6111 0-1.9444 1.6666-3.6111 3.6111-3.6111h44.0277c1.9445 0 3.6112 1.6667 3.6112 3.6111 0 1.9445-1.6667 3.6111-3.6112 3.6111z" fill="#ffffff"/><path d="m38.3377 73.4283c-1.9445 0-3.6111-1.6667-3.6111-3.6111 0-1.9445 1.6666-3.6111 3.6111-3.6111h28.6111c1.9444 0 3.6111 1.6666 3.6111 3.6111 0 1.9444-1.6667 3.6111-3.6111 3.6111z" fill="#ffffff"/><path d="m46.3924 84.5396c-1.9445 0-3.6112-1.6667-3.6112-3.6111 0-1.9445 1.6667-3.6111 3.6112-3.6111h12.5c1.9444 0 3.6111 1.6666 3.6111 3.6111 0 1.9444-1.6667 3.6111-3.6111 3.6111z" fill="#ffffff"/><path d="m52.783 95.65c-1.9445 0-3.6111-1.6667-3.6111-3.6112 0-1.9444 1.6666-3.6111 3.6111-3.6111 1.9444 0 3.6111 1.6667 3.6111 3.6111-.1389 1.9445-1.6667 3.6112-3.6111 3.6112z" fill="#ffffff"/><g fill="#ffffff"><path d="m147.92 70.2319v7.5c0 1.6666-1.389 3.0555-3.056 3.0555s-3.055-1.3889-3.055-3.0555v-19.7222c0-1.6667 1.388-3.0556 3.055-3.0556s3.056 1.3889 3.056 3.0556v7.3611h8.333v-7.3611c0-1.6667 1.389-3.0556 3.056-3.0556 1.666 0 3.055 1.3889 3.055 3.0556v19.7222c0 1.6666-1.389 3.0555-3.055 3.0555-1.667 0-3.056-1.3889-3.056-3.0555v-7.5z"/><path d="m196.81 57.7331c0-1.6667-1.25-2.9167-2.917-2.9167-1.666 0-2.916 1.25-2.916 2.9167v20.1389c0 1.3888 1.111 2.5 2.5 2.5h10.833c1.389 0 2.5-1.1112 2.5-2.5 0-1.3889-1.111-2.5-2.5-2.5h-7.5v-17.5z"/><path d="m215.974 57.7331c0-1.6667-1.25-2.9167-2.917-2.9167-1.666 0-2.916 1.25-2.916 2.9167v20.1389c0 1.3888 1.111 2.5 2.5 2.5h10.833c1.389 0 2.5-1.1112 2.5-2.5 0-1.3889-1.111-2.5-2.5-2.5h-7.5v-17.5z"/><path d="m184.031 67.7326c0-1.3888-1.111-2.5-2.5-2.5h-6.389v-5.1388h8.75c1.389 0 2.5-1.1112 2.5-2.5 0-1.3889-1.111-2.5-2.5-2.5h-12.222c-1.389 0-2.5 1.1111-2.5 2.5v10.1388.2778 10.1389c0 1.3889 1.111 2.5 2.5 2.5h12.222c1.389 0 2.5-1.1111 2.5-2.5s-1.111-2.5-2.5-2.5h-8.75v-5.1389h6.389c1.389 0 2.5-1.1111 2.5-2.5"/><path d="m113.475 68.2888c.138 6.9445 5.833 12.6389 12.916 12.6389 4.167 0 7.5-1.5277 9.861-4.4444v-.1389c.973-1.25.695-3.0556-.555-4.0278s-3.056-.6944-4.028.5556l-.139.1389c-1.25 1.6666-3.194 2.2222-5.278 2.2222-3.888 0-7.083-3.0556-7.222-6.9445v-.8333c.139-3.8889 3.334-6.9444 7.222-6.9444 2.223 0 4.306 1.1111 5.556 2.6389l.139.1388c.972 1.25 2.778 1.5278 4.028.5556s1.527-2.7778.555-4.0278v-.1389c-2.361-3.0555-5.972-5-10.139-5-7.083 0-12.778 5.5556-12.916 12.6389z"/><path d="m102.087 64.816c2.778.5555 5.278 1.8055 6.806 4.0278 1.528 2.0833 1.25 4.0277 1.25 4.0277 0 .8334-.417 1.8056-.694 2.6389-.834 2.0834-4.028 5.1389-9.8616 5.1389-5.4167 0-8.75-3.8889-8.75-3.8889-1.1111-1.25-.9722-3.1944.2778-4.3055s3.1944-.9723 4.3055.2777c0 0 1.8056 2.9167 4.4445 2.9167 2.6388 0 3.8888-2.0833 3.8888-3.0555 0-.9723-.972-2.5-2.917-2.9167l-3.4718-.8333c-3.8889-.9723-5.8334-2.5-5.8334-6.5278 0-5.8334 7.0834-7.2222 9.3052-7.2222 2.362 0 5 .4166 7.362 2.6388 1.25 1.1112.972 3.1945-.278 4.3056s-3.195.9722-4.306-.2778c0 0-.972-1.9444-2.639-1.9444-1.6664 0-3.333 1.1111-3.333 2.3611s.5555 1.8055 1.6666 2.0833c1.1114.2778 2.7774.5556 2.7774.5556z"/></g></g></g></svg>