<svg xmlns="http://www.w3.org/2000/svg" width="250" height="76" viewBox="0 0 250 76">
  <defs>
    <style>
      .cls-1 {
        fill: #004481;
        fill-rule: evenodd;
      }
    </style>
  </defs>
  <path id="Form_1" data-name="Form 1" class="cls-1" d="M233.333,59.683h8.923V42.907a13.428,13.428,0,0,1,.338-3.315c1.014-3.45,3.515-4.735,5.408-4.735a7.983,7.983,0,0,1,1.892.136V26.2A7.412,7.412,0,0,0,248,26.062c-2.434,0-5.07,1.827-6.557,5.344h-0.2l-0.474-4.8h-7.705c0.135,3.044.27,6.63,0.27,9.944V59.683ZM211.3,40.065c0.068-3.314,1.217-7.576,4.124-7.576,2.636,0,3.719,3.315,3.719,7.576H211.3Zm15.616,6.224a23.6,23.6,0,0,0,.27-4.6c0-10.012-4.124-15.627-11.221-15.627-7.5,0-13.25,6.629-13.25,17.724,0,10.349,4.936,16.3,13.926,16.3a27.392,27.392,0,0,0,9.126-1.488l-1.217-6.358a19.5,19.5,0,0,1-6.286,1.082c-3.921,0-6.9-1.893-7.031-7.035h15.683Zm-39.206,1.218a8.281,8.281,0,0,1-.406,2.638,3.149,3.149,0,0,1-2.974,2.368c-2.5,0-4.259-3.111-4.259-9.267,0-5.412,1.285-9.741,4.462-9.741,1.487,0,2.434,1.285,2.838,2.7a8.785,8.785,0,0,1,.339,2.436v8.862Zm1.419-20.9-0.473,3.315h-0.136a6.621,6.621,0,0,0-6.083-3.856c-6.151,0-11.154,6.358-11.154,17.385,0,7.915,2.907,16.032,10.343,16.032a6.676,6.676,0,0,0,5.949-3.314h0.135V58.2c0,5.073-1.758,8.049-6.22,8.049a15.472,15.472,0,0,1-6.353-1.42l-1.623,6.833a21.108,21.108,0,0,0,8.247,1.555c4.867,0,8.315-1.352,10.749-3.652,2.7-2.57,3.987-6.494,3.987-13.6V37.088c0-3.991.2-7.508,0.338-10.485h-7.706Zm-37.583,33.08h8.922V42.907a13.477,13.477,0,0,1,.338-3.315c1.015-3.45,3.515-4.735,5.409-4.735a7.987,7.987,0,0,1,1.892.136V26.2a7.416,7.416,0,0,0-1.892-.136c-2.434,0-5.071,1.827-6.558,5.344h-0.2l-0.474-4.8h-7.705c0.134,3.044.27,6.63,0.27,9.944V59.683ZM129.505,40.065c0.068-3.314,1.217-7.576,4.123-7.576,2.637,0,3.719,3.315,3.719,7.576h-7.842Zm15.615,6.224a23.515,23.515,0,0,0,.27-4.6c0-10.012-4.123-15.627-11.221-15.627-7.5,0-13.248,6.629-13.248,17.724,0,10.349,4.934,16.3,13.924,16.3a27.387,27.387,0,0,0,9.126-1.488l-1.217-6.358a19.493,19.493,0,0,1-6.286,1.082c-3.921,0-6.895-1.893-7.03-7.035H145.12Zm-47.249-6.9h1.892c3.515,0.067,6.625,2.434,6.625,6.967,0,4.667-2.974,6.833-6.557,6.833a8.288,8.288,0,0,1-1.96-.136V39.389Zm0-18.6a7.118,7.118,0,0,1,2.3-.27c3.651,0,5.2,2.57,5.2,5.885,0,3.72-2.432,6.426-5.61,6.426H97.871V20.786ZM89.015,59.548a64.561,64.561,0,0,0,8.247.473c7.639,0,12.235-1.623,14.939-4.6a12.251,12.251,0,0,0,3.379-8.93,10.893,10.893,0,0,0-8.111-10.89V35.329a10.554,10.554,0,0,0,6.625-9.944,10.42,10.42,0,0,0-3.448-8.253c-3.177-2.7-7.3-3.247-11.558-3.247a48.129,48.129,0,0,0-10.072.879V59.548ZM52.977,34h8.474V28.036H52.977V34Zm13.462-4.382V39.773a5.706,5.706,0,0,1-5.7,5.708H52.991c0-.035.01-0.067,0.01-0.1a5.123,5.123,0,1,0-10.245,0c0,0.035.01,0.067,0.01,0.1h-4.3a5.678,5.678,0,0,1-1.522-.212l-4.18-7.319V34c0-3.152,2.552-10.09,5.7-10.09H60.735a5.706,5.706,0,0,1,5.7,5.707m-46.16-7.124,15.055,26.3H25.141L20.278,40.3l-4.862,8.494H5.223ZM44.394,45.38a3.485,3.485,0,1,1,3.484,3.488,3.486,3.486,0,0,1-3.484-3.488m27.765-8.273a36.079,36.079,0,1,0-36.079,36.1,36.093,36.093,0,0,0,36.079-36.1"/>
</svg>
