<svg width="1696" height="700" viewBox="0 0 1696 700" fill="none" xmlns="http://www.w3.org/2000/svg">
<path fill-rule="evenodd" clip-rule="evenodd" d="M289.932 475.578C188.213 475.578 105.732 393.11 105.732 291.376C105.732 189.645 188.213 107.173 289.932 107.173C391.65 107.173 474.133 189.645 474.133 291.376C474.133 393.11 391.65 475.578 289.932 475.578ZM292.424 0C130.919 0 0 130.872 0 292.318C0 453.763 130.919 584.64 292.424 584.64C453.789 584.64 584.709 453.763 584.709 292.318C584.709 130.872 453.789 0 292.424 0ZM1119.87 433.522C1130.8 439.127 1147.69 444.731 1164.99 444.731C1183.67 444.731 1193.5 436.991 1193.5 425.247C1193.5 414.037 1185.05 407.633 1163.33 399.891C1133.43 389.482 1114.06 372.935 1114.06 346.779C1114.06 316.085 1139.66 292.595 1182.01 292.595C1202.35 292.595 1217.3 296.866 1227.96 301.67L1218.96 334.5C1211.76 331.031 1198.89 325.957 1181.32 325.957C1163.6 325.957 1155.16 333.966 1155.16 343.308C1155.16 354.785 1165.27 359.857 1188.52 368.664C1220.21 380.407 1235.15 396.957 1235.15 422.313C1235.15 452.472 1211.9 478.094 1162.64 478.094C1142.02 478.094 1121.81 472.757 1111.57 467.151L1119.87 433.522ZM831.6 375.336H847.655C867.998 375.336 880.038 365.195 880.038 349.445C880.038 332.898 868.828 324.625 850.145 324.358C840.18 324.358 834.645 325.159 831.6 325.692V375.336ZM791.328 297.933C804.475 295.798 823.989 294.198 845.578 294.198C872.288 294.198 890.97 298.201 903.702 308.344C914.359 316.884 920.311 329.428 920.311 345.976C920.311 368.93 903.98 384.679 888.48 390.282V391.085C901.073 396.154 907.993 408.165 912.56 424.713C914.082 430.261 915.604 436.049 917.126 441.672C921.001 456.608 924.739 470.384 927.23 475.426H885.574C882.668 470.354 878.377 455.676 872.98 433.522C868.274 411.101 860.525 404.963 843.918 404.697H831.6V475.426H791.328V297.933ZM637.712 329.695H686.011V475.426H726.836V329.695H775.966V295.532H637.712V329.695ZM698.19 665.663C680.891 665.663 664.145 660.087 653.212 654.513L645.048 687.963C655.15 693.539 675.354 698.848 695.698 698.848C744.827 698.848 767.94 673.362 767.94 643.361C767.94 618.139 753.132 601.678 721.441 589.998C698.329 581.236 688.365 576.192 688.365 564.776C688.365 555.484 696.807 547.52 714.382 547.52C731.82 547.52 744.551 552.564 751.748 556.014L760.744 523.359C750.226 518.581 735.279 514.335 715.073 514.335C672.864 514.335 647.399 537.695 647.399 568.229C647.399 594.245 666.775 610.706 696.529 621.059C717.98 628.759 726.561 635.132 726.561 646.281C726.561 657.963 716.734 665.663 698.19 665.663ZM830.631 586.015V517.255H789.944V696.194H830.631V621.326H897.198V696.194H937.61V517.255H897.198V586.015H830.631ZM1003.48 607.256C1003.48 642.298 1019.95 666.989 1047.08 666.989C1074.34 666.989 1090.12 640.972 1090.12 606.193C1090.12 574.07 1074.62 546.457 1046.8 546.457C1019.4 546.457 1003.48 572.476 1003.48 607.256ZM1132.74 604.864C1132.74 663.538 1097.18 699.114 1044.86 699.114C991.86 699.114 960.72 659.026 960.72 608.051C960.72 554.423 995.042 514.335 1047.91 514.335C1102.85 514.335 1132.74 555.484 1132.74 604.864ZM1209.41 601.944C1203.46 601.944 1199.31 601.678 1195.85 600.884V548.05C1198.76 547.254 1204.29 546.457 1212.6 546.457C1232.66 546.457 1244.15 556.281 1244.15 572.742C1244.15 591.061 1230.86 601.944 1209.41 601.944ZM1210.38 515.926C1185.75 515.926 1168.17 517.519 1155.72 519.643V696.194H1195.85V632.211C1199.59 632.741 1204.29 633.008 1209.69 633.008C1233.49 633.008 1253.97 627.166 1267.81 614.159C1278.33 604.068 1284.28 589.202 1284.28 571.679C1284.28 554.157 1276.53 539.29 1265.05 530.262C1253.14 520.705 1235.43 515.926 1210.38 515.926ZM1305.32 654.513C1316.25 660.087 1333 665.663 1350.16 665.663C1368.84 665.663 1378.67 657.963 1378.67 646.281C1378.67 635.132 1370.09 628.759 1348.63 621.059C1318.88 610.706 1299.5 594.245 1299.5 568.229C1299.5 537.695 1324.97 514.335 1367.18 514.335C1387.38 514.335 1402.19 518.581 1412.85 523.359L1403.85 556.014C1396.66 552.564 1383.93 547.52 1366.35 547.52C1348.91 547.52 1340.33 555.484 1340.33 564.776C1340.33 576.192 1350.43 581.236 1373.55 589.998C1405.1 601.678 1420.05 618.139 1420.05 643.361C1420.05 673.362 1396.93 698.848 1347.81 698.848C1327.32 698.848 1307.12 693.539 1297.15 687.963L1305.32 654.513ZM984.662 399.091V295.532H943.837V395.889C943.837 453.273 970.407 478.362 1015.8 478.362C1062.85 478.362 1090.81 451.938 1090.81 396.423V295.532H1050.26V399.091C1050.26 430.853 1038.5 445.799 1017.19 445.799C996.427 445.799 984.662 430.051 984.662 399.091ZM1243.18 329.695H1291.48V475.426H1332.3V329.695H1381.43V295.532H1243.18V329.695ZM1503.91 399.36H1437.76V442.063H1511.66V475.426H1396.93V295.532H1507.92V328.894H1437.76V366.26H1503.91V399.36ZM1591.93 445.531C1586.81 445.531 1581.27 445.531 1577.68 444.731V327.026C1581.27 326.226 1587.09 325.426 1596.22 325.426C1631.09 325.426 1652.96 345.176 1652.68 382.543C1652.68 425.516 1628.74 445.798 1591.93 445.531ZM1591.93 294.198C1571.31 294.198 1551.79 295.532 1536.85 297.933V474.626C1547.09 475.96 1562.04 477.294 1583.07 477.294C1618.36 477.294 1647.15 469.822 1666.11 454.073C1683.41 439.394 1696 415.639 1696 381.208C1696 349.445 1684.24 327.294 1665.55 313.414C1648.26 300.335 1626.11 294.198 1591.93 294.198ZM320.516 183.838C334.494 183.838 342.106 194.32 342.106 207.713C342.106 253.719 287.856 285.747 248.83 297.395C256.995 265.364 278.583 183.838 320.516 183.838ZM255.888 424.923C305.986 424.923 343.213 388.815 369.923 349.218L355.391 338.153C336.155 361.447 309.998 392.894 277.338 392.894C252.289 392.894 240.111 371.93 240.111 349.218C240.111 338.153 241.91 327.094 243.571 316.026C246.2 315.372 248.967 314.694 251.735 313.985C304.601 300.842 397.325 277.725 397.325 215.285C397.325 178.6 356.637 166.364 326.329 166.364C236.097 166.364 172.021 251.389 172.021 338.153C172.021 391.733 202.883 424.923 255.888 424.923Z" fill="black"/>
</svg>
